<svg width="" height="" viewBox="0 0 5 16" fill="none" xmlns="http://www.w3.org/2000/svg">
<path d="M4.07812 11.1211C4.07812 11.1914 4.07227 11.2676 4.06055 11.3496C4.06055 11.4199 4.07227 11.4844 4.0957 11.543C4.08398 11.6367 4.07227 11.707 4.06055 11.7539C4.06055 11.7891 4.06641 11.8359 4.07812 11.8945C4.06641 12.0352 4.06641 12.123 4.07812 12.1582C4.08984 12.2051 4.0957 12.2402 4.0957 12.2637C4.08398 12.4277 4.07227 12.5625 4.06055 12.668C4.06055 12.7734 4.06641 12.8789 4.07812 12.9844C4.07812 13.0898 4.07227 13.1484 4.06055 13.1602C4.04883 13.1719 4.04297 13.1895 4.04297 13.2129C4.04297 13.2715 4.04883 13.3242 4.06055 13.3711C4.07227 13.4297 4.06641 13.4824 4.04297 13.5293C4.00781 13.6699 4.00781 13.7988 4.04297 13.916C4.07812 14.0449 4.08398 14.1621 4.06055 14.2676C4.11914 14.4316 4.16602 14.5254 4.20117 14.5488C4.17773 14.5723 4.16016 14.6016 4.14844 14.6367C4.13672 14.6836 4.11914 14.7246 4.0957 14.7598C4.04883 14.7598 4.00195 14.7598 3.95508 14.7598C3.91992 14.7598 3.9082 14.7891 3.91992 14.8477C3.82617 14.8359 3.7793 14.8477 3.7793 14.8828C3.79102 14.9297 3.78516 14.9648 3.76172 14.9883C3.64453 14.9766 3.57422 14.9648 3.55078 14.9531C3.52734 14.9531 3.49219 14.9648 3.44531 14.9883C3.33984 15.0703 3.28125 15.1055 3.26953 15.0938C3.25781 15.082 3.24023 15.082 3.2168 15.0938C3.16992 15.1055 3.12891 15.123 3.09375 15.1465C3.05859 15.1699 3.02344 15.1934 2.98828 15.2168C2.92969 15.1934 2.88281 15.1934 2.84766 15.2168C2.82422 15.2402 2.78906 15.252 2.74219 15.252C2.68359 15.1113 2.64844 15.0234 2.63672 14.9883C2.625 14.9648 2.60742 14.9414 2.58398 14.918C2.63086 14.8242 2.64844 14.7598 2.63672 14.7246C2.63672 14.6895 2.625 14.6602 2.60156 14.6367C2.64844 14.5781 2.66602 14.5195 2.6543 14.4609C2.64258 14.4023 2.625 14.3438 2.60156 14.2852C2.64844 14.1914 2.66602 14.1387 2.6543 14.127C2.64258 14.1152 2.64258 14.0977 2.6543 14.0742C2.66602 13.9805 2.66016 13.916 2.63672 13.8809C2.625 13.8457 2.64258 13.8105 2.68945 13.7754C2.6543 13.6816 2.6543 13.6172 2.68945 13.582C2.67773 13.4297 2.68359 13.2949 2.70703 13.1777C2.70703 13.1074 2.70117 13.043 2.68945 12.9844C2.68945 12.9375 2.69531 12.8789 2.70703 12.8086C2.73047 12.6797 2.74219 12.5918 2.74219 12.5449C2.75391 12.5098 2.75977 12.4746 2.75977 12.4395C2.75977 12.3926 2.75391 12.3516 2.74219 12.3164C2.73047 12.2812 2.74219 12.2402 2.77734 12.1934C2.75391 12.0996 2.75391 12.0293 2.77734 11.9824C2.76562 11.8887 2.75977 11.8418 2.75977 11.8418C2.77148 11.8301 2.77734 11.8125 2.77734 11.7891C2.76562 11.7188 2.76562 11.6719 2.77734 11.6484C2.78906 11.625 2.79492 11.6016 2.79492 11.5781C2.7832 11.4609 2.78906 11.3672 2.8125 11.2969C2.80078 11.168 2.80078 11.0625 2.8125 10.9805C2.82422 10.8867 2.82422 10.7988 2.8125 10.7168C2.80078 10.6348 2.80664 10.5527 2.83008 10.4707C2.86523 10.3652 2.87695 10.3125 2.86523 10.3125C2.86523 10.3008 2.86523 10.2832 2.86523 10.2598C2.86523 10.1191 2.86523 10.0254 2.86523 9.97852C2.86523 9.93164 2.85352 9.89648 2.83008 9.87305C2.85352 9.82617 2.86523 9.77344 2.86523 9.71484C2.86523 9.65625 2.88281 9.61523 2.91797 9.5918C2.92969 9.49805 2.92383 9.43945 2.90039 9.41602C2.88867 9.39258 2.89453 9.36328 2.91797 9.32812C2.94141 9.26953 2.94141 9.2168 2.91797 9.16992C2.90625 9.12305 2.91797 9.07031 2.95312 9.01172C2.95312 8.90625 2.95312 8.83594 2.95312 8.80078C2.95312 8.76562 2.95312 8.72461 2.95312 8.67773C2.94141 8.63086 2.94141 8.58984 2.95312 8.55469C2.96484 8.51953 2.9707 8.47852 2.9707 8.43164C2.95898 8.30273 2.95898 8.22656 2.9707 8.20312C2.98242 8.16797 2.98828 8.13281 2.98828 8.09766C2.98828 8.0625 2.98242 8.02148 2.9707 7.97461C2.9707 7.92773 2.97656 7.875 2.98828 7.81641C3.01172 7.71094 3.01758 7.65234 3.00586 7.64062C3.00586 7.62891 3.00586 7.61133 3.00586 7.58789C3.00586 7.50586 3.01172 7.42969 3.02344 7.35938C3.04688 7.27734 3.04688 7.20703 3.02344 7.14844C3.03516 6.97266 3.04102 6.86719 3.04102 6.83203C3.07617 6.70312 3.08789 6.61523 3.07617 6.56836C3.07617 6.52148 3.08789 6.46875 3.11133 6.41016C3.07617 6.28125 3.07031 6.19336 3.09375 6.14648C3.07031 6.06445 3.06445 5.98828 3.07617 5.91797C3.09961 5.84766 3.11133 5.77148 3.11133 5.68945C3.08789 5.5957 3.07617 5.54297 3.07617 5.53125C3.08789 5.51953 3.09375 5.50195 3.09375 5.47852L3.07617 5.05664C3.08789 4.92773 3.08203 4.83398 3.05859 4.77539C3.04688 4.7168 3.05859 4.6582 3.09375 4.59961C3.05859 4.57617 3.04688 4.54688 3.05859 4.51172C3.07031 4.46484 3.07617 4.41797 3.07617 4.37109C3.06445 4.28906 3.05859 4.24219 3.05859 4.23047C3.07031 4.21875 3.07617 4.20117 3.07617 4.17773C3.08789 3.97852 3.07617 3.82617 3.04102 3.7207C3.01758 3.61523 3.00586 3.50977 3.00586 3.4043C3.01758 3.31055 3.01758 3.25781 3.00586 3.24609C2.99414 3.22266 2.98828 3.19922 2.98828 3.17578C2.97656 3.11719 2.9707 3.05859 2.9707 3C2.9707 2.92969 2.95898 2.86523 2.93555 2.80664C2.81836 2.88867 2.75391 2.92969 2.74219 2.92969C2.73047 2.92969 2.71289 2.94141 2.68945 2.96484C2.58398 3.02344 2.49609 3.06445 2.42578 3.08789C2.33203 3.14648 2.26172 3.1875 2.21484 3.21094C2.17969 3.22266 2.13867 3.24023 2.0918 3.26367C2.04492 3.28711 1.99805 3.31055 1.95117 3.33398C1.9043 3.3457 1.86914 3.375 1.8457 3.42188C1.78711 3.45703 1.74023 3.48047 1.70508 3.49219C1.68164 3.50391 1.6582 3.52148 1.63477 3.54492C1.38867 3.5332 1.24219 3.60352 1.19531 3.75586C1.00781 3.70898 0.873047 3.75 0.791016 3.87891C0.732422 3.86719 0.679688 3.86719 0.632812 3.87891C0.585938 3.89062 0.539062 3.89062 0.492188 3.87891C0.421875 3.85547 0.369141 3.82617 0.333984 3.79102C0.310547 3.75586 0.287109 3.71484 0.263672 3.66797C0.310547 3.5625 0.333984 3.48633 0.333984 3.43945C0.380859 3.38086 0.433594 3.33984 0.492188 3.31641C0.550781 3.29297 0.609375 3.26953 0.667969 3.24609C0.902344 3.21094 1.04883 3.12305 1.10742 2.98242C1.22461 2.98242 1.30078 2.97656 1.33594 2.96484C1.37109 2.95313 1.39453 2.92969 1.40625 2.89453C1.54688 2.91797 1.62305 2.91211 1.63477 2.87695C1.6582 2.8418 1.68164 2.8418 1.70508 2.87695C1.78711 2.83008 1.83398 2.80078 1.8457 2.78906C1.85742 2.77734 1.88672 2.77734 1.93359 2.78906C2.08594 2.68359 2.17969 2.60156 2.21484 2.54297C2.26172 2.48437 2.32031 2.44336 2.39062 2.41992C2.4375 2.31445 2.49023 2.23828 2.54883 2.19141C2.57227 2.08594 2.5957 2.03906 2.61914 2.05078C2.6543 2.05078 2.67773 2.03906 2.68945 2.01562C2.68945 1.93359 2.70703 1.875 2.74219 1.83984C2.78906 1.80469 2.81836 1.74609 2.83008 1.66406C2.85352 1.64062 2.87109 1.61133 2.88281 1.57617C2.89453 1.54102 2.91211 1.50586 2.93555 1.4707C2.90039 1.30664 2.90039 1.20117 2.93555 1.1543C2.98242 1.0957 3.01758 1.01953 3.04102 0.925781C3.11133 0.925781 3.1582 0.919922 3.18164 0.908203C3.2168 0.896484 3.24023 0.878906 3.25195 0.855469C3.32227 0.867187 3.36328 0.861328 3.375 0.837891C3.39844 0.814453 3.43359 0.802734 3.48047 0.802734C3.5625 0.720703 3.61523 0.679688 3.63867 0.679688C3.66211 0.667969 3.69141 0.667969 3.72656 0.679688C3.77344 0.644531 3.82031 0.603516 3.86719 0.556641C3.92578 0.509766 3.99609 0.498047 4.07812 0.521484C4.11328 0.498047 4.16016 0.492188 4.21875 0.503906C4.28906 0.503906 4.3418 0.498047 4.37695 0.486328C4.43555 0.556641 4.4707 0.621094 4.48242 0.679688C4.51758 0.761719 4.5 0.832031 4.42969 0.890625C4.45312 0.9375 4.45312 0.978516 4.42969 1.01367C4.41797 1.04883 4.40625 1.08984 4.39453 1.13672C4.40625 1.28906 4.40625 1.40039 4.39453 1.4707C4.39453 1.5293 4.37695 1.58789 4.3418 1.64648C4.37695 1.69336 4.38867 1.75195 4.37695 1.82227C4.37695 1.89258 4.36523 1.95703 4.3418 2.01562C4.35352 2.15625 4.36523 2.26172 4.37695 2.33203C4.40039 2.39063 4.38867 2.44922 4.3418 2.50781C4.36523 2.57812 4.38867 2.66016 4.41211 2.75391C4.43555 2.83594 4.43555 2.91211 4.41211 2.98242C4.41211 3.09961 4.40625 3.17578 4.39453 3.21094C4.39453 3.25781 4.40039 3.29297 4.41211 3.31641C4.43555 3.33984 4.45312 3.36914 4.46484 3.4043C4.46484 3.43945 4.45312 3.48047 4.42969 3.52734C4.40625 3.5625 4.40625 3.59766 4.42969 3.63281C4.37109 3.75 4.35938 3.81445 4.39453 3.82617C4.42969 3.83789 4.44141 3.86719 4.42969 3.91406C4.37109 4.03125 4.35938 4.0957 4.39453 4.10742C4.35938 4.20117 4.35352 4.30078 4.37695 4.40625C4.40039 4.5 4.42383 4.58789 4.44727 4.66992C4.36523 4.76367 4.33008 4.81641 4.3418 4.82812C4.35352 4.83984 4.35938 4.86328 4.35938 4.89844C4.34766 4.99219 4.34766 5.05078 4.35938 5.07422C4.38281 5.08594 4.40039 5.10352 4.41211 5.12695C4.38867 5.26758 4.37695 5.35547 4.37695 5.39062C4.38867 5.41406 4.38281 5.4375 4.35938 5.46094C4.40625 5.61328 4.40625 5.72461 4.35938 5.79492C4.39453 5.83008 4.40625 5.88867 4.39453 5.9707C4.39453 6.05273 4.38867 6.13477 4.37695 6.2168C4.38867 6.32227 4.38281 6.4043 4.35938 6.46289C4.34766 6.52148 4.3418 6.58008 4.3418 6.63867C4.3418 6.69727 4.34766 6.76172 4.35938 6.83203C4.38281 6.90234 4.37109 6.9668 4.32422 7.02539C4.32422 7.14258 4.31836 7.21289 4.30664 7.23633C4.30664 7.25977 4.29492 7.27148 4.27148 7.27148C4.30664 7.3418 4.32422 7.42969 4.32422 7.53516C4.30078 7.67578 4.28906 7.77539 4.28906 7.83398C4.30078 7.88086 4.28906 7.91602 4.25391 7.93945C4.28906 8.06836 4.29492 8.13867 4.27148 8.15039C4.25977 8.16211 4.25391 8.17969 4.25391 8.20312C4.25391 8.26172 4.25977 8.30859 4.27148 8.34375C4.29492 8.36719 4.29492 8.4082 4.27148 8.4668C4.24805 8.56055 4.23633 8.61328 4.23633 8.625C4.24805 8.625 4.25391 8.63672 4.25391 8.66016C4.23047 8.74219 4.21875 8.79492 4.21875 8.81836C4.23047 8.83008 4.23633 8.84766 4.23633 8.87109C4.21289 8.97656 4.20117 9.04688 4.20117 9.08203C4.21289 9.10547 4.20117 9.12891 4.16602 9.15234C4.16602 9.25781 4.17188 9.32227 4.18359 9.3457C4.20703 9.35742 4.21289 9.38086 4.20117 9.41602C4.18945 9.54492 4.17773 9.60938 4.16602 9.60938C4.1543 9.60938 4.14844 9.62109 4.14844 9.64453L4.0957 9.9082C4.0957 9.9668 4.08984 10.0078 4.07812 10.0312C4.06641 10.0547 4.07227 10.0957 4.0957 10.1543C4.08398 10.2715 4.06641 10.3535 4.04297 10.4004C4.03125 10.4473 4.04883 10.4883 4.0957 10.5234C4.06055 10.6406 4.04883 10.7168 4.06055 10.752C4.07227 10.7871 4.07227 10.8223 4.06055 10.8574L4.07812 11.1211Z" fill="white"/>
</svg>
