<svg width="" height="" viewBox="0 0 13 20" fill="none" xmlns="http://www.w3.org/2000/svg">
<path d="M12.3867 17.041C12.5586 17.0124 12.6445 17.0052 12.6445 17.0195C12.6445 17.0339 12.6589 17.0482 12.6875 17.0625C12.8164 17.0768 12.8952 17.0697 12.9238 17.041C12.9525 17.0267 12.9811 17.0339 13.0098 17.0625C12.9382 17.2057 12.888 17.2773 12.8594 17.2773C12.8307 17.2917 12.8092 17.3132 12.7949 17.3418C12.7233 17.4134 12.666 17.4635 12.623 17.4922C12.5944 17.5352 12.5658 17.571 12.5371 17.5996C12.3939 17.6999 12.2793 17.7643 12.1934 17.793C12.0358 17.8646 11.957 17.9004 11.957 17.9004C11.8424 17.972 11.7637 18.0221 11.7207 18.0508C11.6777 18.0794 11.6419 18.1081 11.6133 18.1367L11.334 18.2871C11.2051 18.4017 11.112 18.4661 11.0547 18.4805C10.9974 18.4948 10.9473 18.5163 10.9043 18.5449C10.7754 18.6165 10.7038 18.6523 10.6895 18.6523C10.6465 18.6667 10.6035 18.6667 10.5605 18.6523C10.5176 18.6523 10.4746 18.6523 10.4316 18.6523C10.3027 18.6953 10.224 18.7311 10.1953 18.7598C10.1667 18.7884 10.138 18.8027 10.1094 18.8027C10.0664 18.8171 10.0234 18.8171 9.98047 18.8027C9.9375 18.8027 9.88737 18.8099 9.83008 18.8242C9.72982 18.8815 9.65104 18.9102 9.59375 18.9102C9.55078 18.9102 9.51497 18.9173 9.48633 18.9316C9.17122 19.0176 8.8776 19.0247 8.60547 18.9531C8.47656 18.9531 8.36914 18.946 8.2832 18.9316C8.19727 18.9316 8.13281 18.8958 8.08984 18.8242C7.91797 18.8242 7.82487 18.8099 7.81055 18.7812C7.81055 18.7526 7.79622 18.7311 7.76758 18.7168C7.62435 18.7168 7.54557 18.7025 7.53125 18.6738C7.53125 18.6595 7.51693 18.6452 7.48828 18.6309C7.43099 18.6595 7.38086 18.6595 7.33789 18.6309C7.30924 18.6022 7.2806 18.5807 7.25195 18.5664C7.13737 18.5378 7.05143 18.502 6.99414 18.459C6.93685 18.4303 6.8724 18.4017 6.80078 18.373C6.58594 18.2871 6.42839 18.2441 6.32812 18.2441C6.27083 18.1868 6.21354 18.1367 6.15625 18.0938C6.09896 18.0651 6.01302 18.0579 5.89844 18.0723C5.84115 17.972 5.75521 17.9219 5.64062 17.9219C5.46875 17.7786 5.32552 17.6999 5.21094 17.6855C5.11068 17.6855 5.04622 17.6426 5.01758 17.5566C4.87435 17.528 4.78841 17.5065 4.75977 17.4922C4.73112 17.4779 4.70964 17.485 4.69531 17.5137C4.6237 17.4564 4.53776 17.4062 4.4375 17.3633C4.33724 17.3346 4.23698 17.3275 4.13672 17.3418C3.99349 17.2415 3.90755 17.1842 3.87891 17.1699C3.85026 17.1699 3.80729 17.1556 3.75 17.127C3.57812 17.084 3.44922 17.0697 3.36328 17.084C3.29167 17.1126 3.24154 17.0911 3.21289 17.0195C3.14128 17.0482 3.0625 17.0482 2.97656 17.0195C2.90495 17.0052 2.83333 16.998 2.76172 16.998C2.6901 16.998 2.62565 17.0052 2.56836 17.0195C2.51107 17.0482 2.42513 17.0553 2.31055 17.041C2.15299 16.998 2.06706 16.9766 2.05273 16.9766C2.03841 16.9909 2.01693 16.998 1.98828 16.998C1.81641 16.9694 1.6875 16.9622 1.60156 16.9766C1.51562 17.0052 1.41536 17.0339 1.30078 17.0625C1.17188 17.1484 1.0931 17.1699 1.06445 17.127C1.03581 17.084 0.971354 17.0697 0.871094 17.084C0.813802 16.9551 0.792318 16.8906 0.806641 16.8906C0.820964 16.8906 0.828125 16.8763 0.828125 16.8477C0.842448 16.6901 0.871094 16.5898 0.914062 16.5469L1.15039 16.4395C1.33659 16.3822 1.45833 16.3249 1.51562 16.2676C1.57292 16.2246 1.63021 16.1816 1.6875 16.1387C1.84505 16.1387 1.93099 16.1243 1.94531 16.0957C1.97396 16.0671 2.01693 16.0384 2.07422 16.0098C2.1888 16.0098 2.26042 16.0026 2.28906 15.9883C2.33203 15.974 2.36784 15.9668 2.39648 15.9668C2.52539 15.9668 2.60417 15.9596 2.63281 15.9453C2.66146 15.9453 2.6901 15.9382 2.71875 15.9238C2.84766 15.8952 2.92643 15.888 2.95508 15.9023C2.98372 15.9167 3.01953 15.9238 3.0625 15.9238C3.13411 15.9382 3.22721 15.931 3.3418 15.9023C3.45638 15.888 3.55664 15.8952 3.64258 15.9238C3.68555 15.8952 3.72852 15.8737 3.77148 15.8594C3.82878 15.8594 3.87891 15.8451 3.92188 15.8164C4.05078 15.7018 4.13672 15.6374 4.17969 15.623C4.23698 15.623 4.28711 15.6087 4.33008 15.5801C4.35872 15.5514 4.38737 15.5156 4.41602 15.4727C4.44466 15.444 4.47331 15.4154 4.50195 15.3867C4.65951 15.3294 4.78841 15.2363 4.88867 15.1074C4.97461 15.0645 5.01758 15.0358 5.01758 15.0215C5.0319 15.0072 5.05339 14.9857 5.08203 14.957C5.18229 14.9427 5.26823 14.8854 5.33984 14.7852C5.46875 14.6849 5.56185 14.6204 5.61914 14.5918C5.69076 14.5488 5.74089 14.4772 5.76953 14.377C5.84115 14.3483 5.89844 14.3268 5.94141 14.3125C5.98438 14.2839 6.01302 14.2337 6.02734 14.1621C6.14193 14.0905 6.22786 14.0404 6.28516 14.0117C6.3138 13.9831 6.34245 13.9616 6.37109 13.9473C6.39974 13.9186 6.43555 13.89 6.47852 13.8613C6.60742 13.7324 6.69336 13.6536 6.73633 13.625C6.7793 13.582 6.8151 13.5462 6.84375 13.5176C6.94401 13.4603 7.00846 13.4102 7.03711 13.3672C7.08008 13.3099 7.13021 13.2741 7.1875 13.2598C7.21615 13.1882 7.25911 13.1309 7.31641 13.0879C7.3737 13.0449 7.43099 12.9876 7.48828 12.916C7.61719 12.6868 7.72461 12.5651 7.81055 12.5508C7.91081 12.4219 7.96094 12.3431 7.96094 12.3145C7.97526 12.2858 7.98958 12.2572 8.00391 12.2285C8.08984 12.0996 8.14714 12.0423 8.17578 12.0566C8.29036 11.7702 8.3763 11.6055 8.43359 11.5625C8.44792 11.5052 8.46224 11.4622 8.47656 11.4336C8.50521 11.3906 8.52669 11.3405 8.54102 11.2832C8.61263 11.1829 8.6556 11.1185 8.66992 11.0898C8.69857 11.0469 8.72721 11.0111 8.75586 10.9824C8.8418 10.8105 8.89909 10.6816 8.92773 10.5957C8.9707 10.4954 9.02799 10.4095 9.09961 10.3379C9.14258 10.2663 9.16406 10.209 9.16406 10.166C9.16406 10.123 9.18555 10.0944 9.22852 10.0801C9.24284 9.99414 9.26432 9.92253 9.29297 9.86523C9.32161 9.80794 9.35026 9.75781 9.37891 9.71484C9.4362 9.48568 9.47917 9.36393 9.50781 9.34961C9.47917 9.29232 9.47917 9.23503 9.50781 9.17773C9.53646 9.12044 9.55794 9.05599 9.57227 8.98438C9.60091 8.91276 9.60807 8.83398 9.59375 8.74805C9.59375 8.66211 9.6224 8.59766 9.67969 8.55469C9.67969 8.48307 9.68685 8.41862 9.70117 8.36133C9.72982 8.30404 9.75846 8.26107 9.78711 8.23242V7.95312C9.85872 7.79557 9.88737 7.7168 9.87305 7.7168C9.90169 7.54492 9.92318 7.45898 9.9375 7.45898C9.95182 7.44466 9.95898 7.43034 9.95898 7.41602C9.95898 7.38737 9.94466 7.35156 9.91602 7.30859C9.90169 7.26562 9.90885 7.22266 9.9375 7.17969C9.98047 7.05078 9.99479 6.97201 9.98047 6.94336C9.98047 6.91471 9.98047 6.88607 9.98047 6.85742C9.96615 6.80013 9.96615 6.75 9.98047 6.70703C9.99479 6.64974 9.98763 6.60677 9.95898 6.57812C9.98763 6.54948 9.99479 6.51367 9.98047 6.4707C9.98047 6.42773 9.98047 6.3776 9.98047 6.32031C9.96615 6.22005 9.96615 6.12695 9.98047 6.04102C9.99479 5.95508 9.99479 5.86914 9.98047 5.7832C9.9375 5.61133 9.88737 5.48242 9.83008 5.39648C9.80143 5.21029 9.77995 5.06706 9.76562 4.9668C9.7513 4.85221 9.70117 4.75911 9.61523 4.6875C9.61523 4.57292 9.60091 4.50846 9.57227 4.49414C9.54362 4.47982 9.51497 4.45833 9.48633 4.42969C9.48633 4.34375 9.47201 4.2793 9.44336 4.23633C9.41471 4.17904 9.39323 4.10742 9.37891 4.02148C9.26432 3.87826 9.19987 3.79948 9.18555 3.78516C9.17122 3.77083 9.14974 3.75651 9.12109 3.74219C9.0638 3.58464 9.00651 3.47005 8.94922 3.39844C8.89193 3.3125 8.82031 3.23372 8.73438 3.16211C8.63411 3.06185 8.56966 3.01172 8.54102 3.01172C8.51237 2.9974 8.49805 2.96875 8.49805 2.92578C8.45508 2.92578 8.41927 2.9043 8.39062 2.86133C8.36198 2.81836 8.32617 2.78255 8.2832 2.75391C8.21159 2.68229 8.16862 2.63932 8.1543 2.625C8.1543 2.61068 8.13997 2.58919 8.11133 2.56055C8.02539 2.46029 7.97526 2.41016 7.96094 2.41016C7.94661 2.41016 7.92513 2.40299 7.89648 2.38867C7.81055 2.31706 7.75326 2.28125 7.72461 2.28125C7.69596 2.28125 7.66732 2.26693 7.63867 2.23828C7.49544 2.19531 7.42383 2.15951 7.42383 2.13086C7.43815 2.10221 7.43099 2.08073 7.40234 2.06641C7.33073 2.08073 7.2806 2.07357 7.25195 2.04492C7.23763 2.01628 7.20898 1.98763 7.16602 1.95898C7.06576 1.97331 6.94401 1.96615 6.80078 1.9375C6.65755 1.89453 6.52148 1.88021 6.39258 1.89453C6.27799 1.90885 6.17057 1.94466 6.07031 2.00195C5.94141 2.00195 5.85547 2.02344 5.8125 2.06641C5.78385 2.09505 5.73372 2.1237 5.66211 2.15234C5.50456 2.2526 5.39714 2.3457 5.33984 2.43164C5.28255 2.50326 5.19661 2.55339 5.08203 2.58203C5.02474 2.78255 4.96745 2.88281 4.91016 2.88281C4.86719 2.88281 4.85286 2.91146 4.86719 2.96875C4.7526 2.9974 4.67383 3.06185 4.63086 3.16211C4.60221 3.26237 4.55208 3.34831 4.48047 3.41992C4.4375 3.54883 4.37305 3.65625 4.28711 3.74219L4.26562 3.97852C4.26562 4.15039 4.27279 4.26497 4.28711 4.32227C4.30143 4.37956 4.30859 4.44401 4.30859 4.51562C4.27995 4.64453 4.26562 4.73047 4.26562 4.77344C4.26562 4.81641 4.27279 4.85938 4.28711 4.90234C4.22982 4.93099 4.20833 4.98112 4.22266 5.05273C4.23698 5.12435 4.25846 5.17448 4.28711 5.20312C4.25846 5.33203 4.24414 5.41081 4.24414 5.43945C4.25846 5.45378 4.26562 5.47526 4.26562 5.50391C4.26562 5.57552 4.25846 5.64714 4.24414 5.71875C4.24414 5.77604 4.2513 5.84049 4.26562 5.91211C4.30859 6.11263 4.32292 6.24154 4.30859 6.29883C4.30859 6.35612 4.31576 6.41341 4.33008 6.4707C4.35872 6.61393 4.38737 6.69271 4.41602 6.70703C4.45898 6.72135 4.47331 6.75716 4.45898 6.81445C4.50195 6.85742 4.53776 6.90755 4.56641 6.96484C4.60938 7.00781 4.63802 7.0651 4.65234 7.13672C4.76693 7.2513 4.82422 7.32292 4.82422 7.35156C4.82422 7.36589 4.83138 7.38737 4.8457 7.41602C4.88867 7.45898 4.93164 7.49479 4.97461 7.52344C5.01758 7.55208 5.05339 7.60221 5.08203 7.67383C5.18229 7.7168 5.24674 7.73828 5.27539 7.73828C5.31836 7.72396 5.36133 7.72396 5.4043 7.73828C5.54753 7.79557 5.64062 7.83854 5.68359 7.86719C5.74089 7.88151 5.79102 7.87435 5.83398 7.8457C5.89128 7.81706 5.94141 7.8099 5.98438 7.82422C6.02734 7.82422 6.07031 7.81706 6.11328 7.80273C6.28516 7.78841 6.39258 7.78841 6.43555 7.80273C6.47852 7.80273 6.53581 7.81706 6.60742 7.8457C6.5931 8.06055 6.57161 8.18945 6.54297 8.23242C6.51432 8.26107 6.48568 8.30404 6.45703 8.36133C6.38542 8.37565 6.3138 8.38997 6.24219 8.4043C6.1849 8.41862 6.14909 8.46159 6.13477 8.5332C6.02018 8.56185 5.92708 8.59766 5.85547 8.64062C5.78385 8.68359 5.71224 8.73372 5.64062 8.79102C5.45443 8.81966 5.33984 8.86263 5.29688 8.91992C5.18229 8.94857 5.07487 8.96289 4.97461 8.96289C4.88867 8.94857 4.78841 8.94857 4.67383 8.96289C4.55924 8.9056 4.48047 8.88411 4.4375 8.89844C4.39453 8.89844 4.35156 8.89128 4.30859 8.87695C4.19401 8.83398 4.1224 8.79818 4.09375 8.76953C3.96484 8.74089 3.89323 8.7194 3.87891 8.70508C3.86458 8.69076 3.8431 8.67643 3.81445 8.66211C3.69987 8.60482 3.62109 8.56901 3.57812 8.55469C3.50651 8.4974 3.45638 8.46875 3.42773 8.46875C3.41341 8.45443 3.39193 8.43294 3.36328 8.4043C3.22005 8.17513 3.11979 8.01758 3.0625 7.93164C3.01953 7.88867 2.97656 7.83138 2.93359 7.75977C2.90495 7.68815 2.86914 7.61654 2.82617 7.54492C2.72591 7.40169 2.67578 7.27995 2.67578 7.17969C2.60417 7.00781 2.57552 6.88607 2.58984 6.81445C2.60417 6.72852 2.58984 6.64974 2.54688 6.57812C2.54688 6.40625 2.53971 6.28451 2.52539 6.21289C2.51107 6.12695 2.51107 6.01953 2.52539 5.89062C2.56836 5.76172 2.58268 5.67578 2.56836 5.63281C2.55404 5.58984 2.54688 5.53255 2.54688 5.46094C2.57552 5.34635 2.58268 5.2819 2.56836 5.26758C2.55404 5.25326 2.54688 5.23177 2.54688 5.20312L2.58984 4.9668C2.58984 4.88086 2.60417 4.81641 2.63281 4.77344C2.67578 4.73047 2.69727 4.6875 2.69727 4.64453C2.69727 4.52995 2.71159 4.42969 2.74023 4.34375C2.76888 4.24349 2.7832 4.14323 2.7832 4.04297C2.88346 3.89974 2.93359 3.80664 2.93359 3.76367C2.94792 3.7207 2.96224 3.67773 2.97656 3.63477C3.07682 3.53451 3.12695 3.47721 3.12695 3.46289C3.12695 3.44857 3.13411 3.43424 3.14844 3.41992C3.19141 3.37695 3.22721 3.33398 3.25586 3.29102C3.29883 3.23372 3.33464 3.18359 3.36328 3.14062C3.50651 2.91146 3.61393 2.75391 3.68555 2.66797C3.75716 2.58203 3.8431 2.51042 3.94336 2.45312C4.0293 2.35286 4.07943 2.29557 4.09375 2.28125C4.10807 2.2526 4.12956 2.23112 4.1582 2.2168C4.28711 2.14518 4.35872 2.09505 4.37305 2.06641C4.40169 2.02344 4.43034 1.98763 4.45898 1.95898C4.58789 1.87305 4.67383 1.83008 4.7168 1.83008C4.75977 1.83008 4.78841 1.79427 4.80273 1.72266C4.86003 1.69401 4.91016 1.67253 4.95312 1.6582C5.01042 1.62956 5.05339 1.59375 5.08203 1.55078C5.16797 1.5651 5.22526 1.55794 5.25391 1.5293C5.28255 1.50065 5.33268 1.47917 5.4043 1.46484C5.47591 1.39323 5.56901 1.35742 5.68359 1.35742C5.72656 1.32878 5.76953 1.30013 5.8125 1.27148C5.85547 1.24284 5.91276 1.23568 5.98438 1.25C6.04167 1.22135 6.08464 1.19987 6.11328 1.18555C6.15625 1.17122 6.20638 1.1569 6.26367 1.14258C6.43555 1.08529 6.53581 1.05664 6.56445 1.05664C6.5931 1.05664 6.62891 1.04948 6.67188 1.03516C6.91536 0.992188 7.07292 0.95638 7.14453 0.927734C7.23047 0.899089 7.33789 0.899089 7.4668 0.927734C7.63867 0.95638 7.74609 0.963542 7.78906 0.949219C7.83203 0.934896 7.88932 0.920573 7.96094 0.90625C8.03255 0.920573 8.08984 0.942057 8.13281 0.970703C8.1901 0.999349 8.26172 1.01367 8.34766 1.01367C8.3763 1.04232 8.41211 1.0638 8.45508 1.07812C8.51237 1.07812 8.55534 1.08529 8.58398 1.09961C8.72721 1.18555 8.82031 1.23568 8.86328 1.25C8.92057 1.25 8.95638 1.27865 8.9707 1.33594C9.12826 1.42188 9.20703 1.47201 9.20703 1.48633C9.22135 1.48633 9.23568 1.50065 9.25 1.5293C9.30729 1.54362 9.35742 1.5651 9.40039 1.59375C9.44336 1.6224 9.48633 1.65104 9.5293 1.67969C9.6582 1.77995 9.72266 1.8444 9.72266 1.87305C9.88021 2.00195 9.98047 2.11654 10.0234 2.2168C10.1523 2.27409 10.224 2.3099 10.2383 2.32422C10.2812 2.39583 10.3385 2.46745 10.4102 2.53906C10.4674 2.71094 10.5104 2.8112 10.5391 2.83984C10.582 2.85417 10.6178 2.87565 10.6465 2.9043C10.7038 3.09049 10.7467 3.20508 10.7754 3.24805C10.8184 3.27669 10.8398 3.32682 10.8398 3.39844L10.9688 3.69922C11.0404 3.82812 11.069 3.89974 11.0547 3.91406C11.0404 3.91406 11.0404 3.92839 11.0547 3.95703C11.0833 3.98568 11.1048 4.02865 11.1191 4.08594C11.1478 4.14323 11.1836 4.1862 11.2266 4.21484C11.2266 4.32943 11.2552 4.42253 11.3125 4.49414C11.3841 4.56576 11.4271 4.65885 11.4414 4.77344C11.4271 4.93099 11.4271 5.03125 11.4414 5.07422C11.4701 5.10286 11.4915 5.13151 11.5059 5.16016C11.5488 5.31771 11.556 5.41797 11.5273 5.46094C11.513 5.50391 11.5059 5.54688 11.5059 5.58984C11.5059 5.63281 11.513 5.67578 11.5273 5.71875C11.556 5.7474 11.5775 5.7832 11.5918 5.82617C11.6204 5.9694 11.6204 6.10547 11.5918 6.23438C11.5775 6.32031 11.5703 6.39909 11.5703 6.4707C11.5703 6.54232 11.5703 6.61393 11.5703 6.68555C11.5417 6.77148 11.5202 6.85026 11.5059 6.92188C11.5059 6.97917 11.4915 7.04362 11.4629 7.11523C11.4915 7.14388 11.4915 7.18685 11.4629 7.24414C11.4486 7.28711 11.4557 7.32292 11.4844 7.35156C11.4128 7.39453 11.377 7.46615 11.377 7.56641C11.3913 7.66667 11.377 7.73828 11.334 7.78125C11.334 7.92448 11.3197 8.02474 11.291 8.08203C11.2767 8.22526 11.2552 8.30404 11.2266 8.31836C11.1979 8.31836 11.1908 8.35417 11.2051 8.42578C11.1048 8.55469 11.0475 8.61914 11.0332 8.61914C11.0189 8.61914 11.0117 8.6263 11.0117 8.64062C11.0404 8.82682 11.0475 8.95573 11.0332 9.02734C11.0189 9.08464 10.9974 9.14909 10.9688 9.2207C10.9115 9.37826 10.8828 9.46419 10.8828 9.47852C10.8971 9.49284 10.8971 9.51432 10.8828 9.54297C10.8112 9.62891 10.7754 9.6862 10.7754 9.71484C10.7754 9.74349 10.7539 9.75781 10.7109 9.75781C10.6823 9.90104 10.6465 9.99414 10.6035 10.0371C10.5749 10.0658 10.5462 10.0944 10.5176 10.123C10.4746 10.2233 10.446 10.3021 10.4316 10.3594C10.4173 10.4167 10.3958 10.4668 10.3672 10.5098C10.2956 10.5671 10.2454 10.61 10.2168 10.6387C10.2025 10.6673 10.181 10.696 10.1523 10.7246C10.1667 10.8105 10.1667 10.8822 10.1523 10.9395C10.1523 10.9824 10.138 11.0326 10.1094 11.0898C10.0521 11.1185 9.98763 11.1686 9.91602 11.2402C9.87305 11.3978 9.83724 11.4837 9.80859 11.498C9.79427 11.5124 9.77279 11.5267 9.74414 11.541C9.71549 11.7702 9.62956 11.9349 9.48633 12.0352C9.41471 12.207 9.36458 12.3001 9.33594 12.3145C9.30729 12.3288 9.30013 12.3646 9.31445 12.4219C9.24284 12.4219 9.19987 12.4505 9.18555 12.5078C9.17122 12.5651 9.14974 12.6081 9.12109 12.6367C8.97786 12.7513 8.90625 12.8301 8.90625 12.873C8.61979 13.0163 8.4694 13.181 8.45508 13.3672C8.39779 13.4102 8.33333 13.4531 8.26172 13.4961C8.1901 13.5391 8.13997 13.6035 8.11133 13.6895C8.01107 13.7181 7.92513 13.7682 7.85352 13.8398C7.79622 13.8971 7.74609 13.9616 7.70312 14.0332C7.58854 14.0475 7.50977 14.0977 7.4668 14.1836C7.42383 14.2552 7.34505 14.3053 7.23047 14.334C7.17318 14.4056 7.10872 14.4701 7.03711 14.5273C6.96549 14.5703 6.89388 14.6204 6.82227 14.6777C6.73633 14.7637 6.67904 14.821 6.65039 14.8496C6.63607 14.8639 6.61458 14.8854 6.58594 14.9141L6.34961 15.043C6.30664 15.0859 6.27083 15.1217 6.24219 15.1504C6.21354 15.179 6.16341 15.2077 6.0918 15.2363C6.00586 15.2936 5.94857 15.3223 5.91992 15.3223C5.9056 15.3223 5.88411 15.3294 5.85547 15.3438C5.8125 15.3724 5.77669 15.4154 5.74805 15.4727C5.7194 15.5299 5.66927 15.5658 5.59766 15.5801C5.52604 15.6517 5.46875 15.6947 5.42578 15.709C5.39714 15.7376 5.36133 15.752 5.31836 15.752C5.26107 15.8236 5.18229 15.8737 5.08203 15.9023C4.98177 15.931 4.89583 15.9811 4.82422 16.0527C4.89583 16.1387 5.00326 16.1745 5.14648 16.1602C5.30404 16.1602 5.41146 16.2031 5.46875 16.2891C5.58333 16.2891 5.67643 16.3105 5.74805 16.3535C5.83398 16.3965 5.92708 16.4323 6.02734 16.4609C6.14193 16.5755 6.27083 16.64 6.41406 16.6543C6.44271 16.7116 6.48568 16.7474 6.54297 16.7617C6.60026 16.7904 6.65039 16.8262 6.69336 16.8691C6.86523 16.9264 6.98698 16.9622 7.05859 16.9766C7.14453 17.0052 7.20182 17.0482 7.23047 17.1055C7.31641 17.1341 7.39518 17.1556 7.4668 17.1699C7.55273 17.1986 7.63151 17.2272 7.70312 17.2559C7.84635 17.3275 7.92513 17.3633 7.93945 17.3633C8.08268 17.4492 8.16146 17.485 8.17578 17.4707C8.1901 17.4707 8.21159 17.4779 8.24023 17.4922C8.45508 17.5781 8.57682 17.6426 8.60547 17.6855C8.67708 17.6999 8.74154 17.707 8.79883 17.707C8.85612 17.7214 8.91341 17.7428 8.9707 17.7715C9.09961 17.8145 9.16406 17.8431 9.16406 17.8574C9.16406 17.8717 9.17122 17.8861 9.18555 17.9004C9.37174 17.9577 9.48633 17.9792 9.5293 17.9648C9.58659 17.9648 9.63672 17.972 9.67969 17.9863C9.73698 17.9863 9.78711 17.9935 9.83008 18.0078C9.87305 18.0365 9.93034 18.0579 10.002 18.0723C10.0592 18.0723 10.1165 18.0723 10.1738 18.0723C10.2311 18.0723 10.2956 18.0651 10.3672 18.0508C10.3958 18.0365 10.4388 18.0293 10.4961 18.0293C10.5677 18.0293 10.6322 18.0293 10.6895 18.0293C10.7611 18.0293 10.8255 18.0293 10.8828 18.0293C10.9544 18.0436 11.026 18.0365 11.0977 18.0078C11.1406 17.9792 11.1836 17.9505 11.2266 17.9219C11.2695 17.8932 11.3197 17.8717 11.377 17.8574C11.4486 17.7715 11.5488 17.707 11.6777 17.6641C11.778 17.5924 11.8353 17.5423 11.8496 17.5137C11.8639 17.4993 11.8854 17.4779 11.9141 17.4492C12.0143 17.3919 12.0859 17.349 12.1289 17.3203C12.1719 17.2917 12.2005 17.2415 12.2148 17.1699L12.3867 17.041Z" fill="white"/>
</svg>
