<svg width="" height="" viewBox="0 0 13 20" fill="none" xmlns="http://www.w3.org/2000/svg">
<path d="M8.89453 1.05664C9.09505 1.08529 9.23112 1.09245 9.30273 1.07812C9.33138 1.12109 9.40299 1.18555 9.51758 1.27148C9.58919 1.31445 9.66081 1.37174 9.73242 1.44336C9.80404 1.50065 9.86849 1.5651 9.92578 1.63672C10.026 1.76562 10.112 1.89453 10.1836 2.02344C10.3411 2.22396 10.4557 2.33854 10.5273 2.36719C10.599 2.51042 10.6348 2.60352 10.6348 2.64648C10.6491 2.67513 10.6706 2.69661 10.6992 2.71094C10.7135 2.83984 10.7279 2.91862 10.7422 2.94727C10.7565 2.96159 10.7708 2.98307 10.7852 3.01172C10.7422 3.09766 10.735 3.18359 10.7637 3.26953C10.7923 3.35547 10.7923 3.42708 10.7637 3.48438C10.7923 3.4987 10.8066 3.54167 10.8066 3.61328C10.8066 3.67057 10.821 3.71354 10.8496 3.74219C10.821 3.85677 10.8138 3.92839 10.8281 3.95703C10.8424 3.98568 10.8568 4.01432 10.8711 4.04297C10.8568 4.11458 10.8496 4.1862 10.8496 4.25781C10.8496 4.32943 10.8424 4.40104 10.8281 4.47266C10.7852 4.55859 10.7637 4.63021 10.7637 4.6875C10.778 4.74479 10.778 4.79492 10.7637 4.83789C10.7207 4.93815 10.6992 4.99544 10.6992 5.00977C10.7135 5.02409 10.7135 5.04557 10.6992 5.07422C10.6276 5.16016 10.5703 5.21745 10.5273 5.24609C10.4987 5.26042 10.4844 5.2819 10.4844 5.31055C10.4987 5.36784 10.4987 5.41081 10.4844 5.43945C10.4701 5.4681 10.4701 5.50391 10.4844 5.54688C10.4701 5.60417 10.4414 5.64714 10.3984 5.67578C10.3555 5.6901 10.3411 5.73307 10.3555 5.80469C10.2982 5.83333 10.2552 5.88346 10.2266 5.95508C10.2122 6.01237 10.1693 6.05534 10.0977 6.08398C10.0404 6.24154 10.0046 6.33464 9.99023 6.36328C9.97591 6.39193 9.94727 6.40625 9.9043 6.40625C9.84701 6.52083 9.8112 6.58529 9.79688 6.59961C9.79688 6.59961 9.78255 6.60677 9.75391 6.62109C9.61068 6.75 9.5319 6.82161 9.51758 6.83594C9.41732 6.92188 9.36003 6.97917 9.3457 7.00781C9.33138 7.02214 9.31706 7.03646 9.30273 7.05078C9.23112 7.10807 9.18815 7.14388 9.17383 7.1582C9.15951 7.17253 9.14518 7.20117 9.13086 7.24414C9.00195 7.35872 8.93034 7.42318 8.91602 7.4375C8.81576 7.49479 8.7513 7.5306 8.72266 7.54492C8.69401 7.55924 8.67253 7.58789 8.6582 7.63086C8.51497 7.73112 8.44336 7.78125 8.44336 7.78125C8.44336 7.76693 8.4362 7.76693 8.42188 7.78125C8.39323 7.8099 8.35026 7.83138 8.29297 7.8457C8.23568 7.86003 8.19271 7.88151 8.16406 7.91016C8.20703 7.96745 8.30013 7.99609 8.44336 7.99609C8.62956 8.05339 8.73698 8.08203 8.76562 8.08203C8.80859 8.08203 8.85156 8.08919 8.89453 8.10352C9.08073 8.20378 9.18099 8.25391 9.19531 8.25391C9.23828 8.28255 9.28125 8.29688 9.32422 8.29688C9.36719 8.28255 9.41732 8.28255 9.47461 8.29688C9.51758 8.32552 9.56055 8.35417 9.60352 8.38281C9.64648 8.39714 9.69661 8.41146 9.75391 8.42578C9.92578 8.4974 10.0189 8.56901 10.0332 8.64062C10.1908 8.71224 10.3268 8.76237 10.4414 8.79102C10.5703 8.81966 10.6634 8.87695 10.7207 8.96289C10.7923 8.97721 10.8496 8.99154 10.8926 9.00586C10.9355 9.02018 10.9714 9.06315 11 9.13477C11.1576 9.24935 11.2721 9.32096 11.3438 9.34961C11.4154 9.37826 11.487 9.41406 11.5586 9.45703C11.5586 9.52865 11.5801 9.57878 11.623 9.60742C11.666 9.63607 11.6947 9.6862 11.709 9.75781C11.8092 9.85807 11.8594 9.92253 11.8594 9.95117C11.8594 9.97982 11.8665 10.0085 11.8809 10.0371C11.9095 10.0658 11.9382 10.1087 11.9668 10.166C12.0098 10.209 12.0456 10.252 12.0742 10.2949C12.1458 10.5241 12.2031 10.6458 12.2461 10.6602C12.2318 10.7318 12.2389 10.7891 12.2676 10.832C12.2962 10.8607 12.3034 10.9108 12.2891 10.9824C12.3893 11.14 12.4395 11.2474 12.4395 11.3047C12.4538 11.3477 12.4753 11.3835 12.5039 11.4121C12.4753 11.5983 12.4896 11.7201 12.5469 11.7773C12.5326 11.9062 12.5254 12.0065 12.5254 12.0781C12.5254 12.1354 12.5254 12.1999 12.5254 12.2715C12.5254 12.3288 12.5254 12.3932 12.5254 12.4648C12.5397 12.5221 12.5684 12.5723 12.6113 12.6152C12.597 12.6868 12.5898 12.7585 12.5898 12.8301C12.5898 12.9017 12.5755 12.959 12.5469 13.002C12.5755 13.1595 12.5827 13.2526 12.5684 13.2812C12.554 13.3099 12.5612 13.3529 12.5898 13.4102C12.5469 13.5534 12.5182 13.6465 12.5039 13.6895C12.5039 13.7324 12.5039 13.7826 12.5039 13.8398C12.4753 14.0117 12.4609 14.1335 12.4609 14.2051C12.4609 14.2624 12.4538 14.3053 12.4395 14.334C12.3822 14.5059 12.3535 14.6419 12.3535 14.7422C12.3105 14.8568 12.2819 14.9284 12.2676 14.957C12.2533 14.9857 12.2389 15.0215 12.2246 15.0645C12.1816 15.2077 12.1458 15.2865 12.1172 15.3008C12.1029 15.3294 12.1029 15.3652 12.1172 15.4082C12.0312 15.5658 11.9596 15.6517 11.9023 15.666C11.8594 15.6947 11.8451 15.7448 11.8594 15.8164C11.7734 15.8451 11.7161 15.888 11.6875 15.9453C11.6589 16.0169 11.6016 16.0671 11.5156 16.0957C11.4154 16.2389 11.3438 16.332 11.3008 16.375C11.2721 16.418 11.2435 16.4538 11.2148 16.4824C11.1862 16.5111 11.1504 16.5397 11.1074 16.5684C11.0788 16.6113 11.043 16.6471 11 16.6758C10.8854 16.8047 10.8353 16.8763 10.8496 16.8906C10.8783 16.9049 10.8783 16.9264 10.8496 16.9551C10.6777 16.9694 10.5846 16.998 10.5703 17.041C10.5703 17.084 10.5345 17.1055 10.4629 17.1055C10.377 17.1484 10.3197 17.1842 10.291 17.2129C10.2767 17.2559 10.2552 17.2917 10.2266 17.3203C10.0977 17.3633 10.026 17.3848 10.0117 17.3848C10.0117 17.3991 9.9974 17.4134 9.96875 17.4277C9.92578 17.4707 9.88997 17.4993 9.86133 17.5137C9.83268 17.5423 9.80404 17.571 9.77539 17.5996C9.61784 17.6569 9.53906 17.7142 9.53906 17.7715C9.4388 17.7428 9.36003 17.75 9.30273 17.793C9.25977 17.8359 9.22396 17.8861 9.19531 17.9434C9.03776 17.9577 8.94466 17.972 8.91602 17.9863C8.90169 18.015 8.87305 18.015 8.83008 17.9863C8.74414 18.0723 8.6582 18.1224 8.57227 18.1367C8.44336 18.2513 8.3431 18.3158 8.27148 18.3301C8.19987 18.3444 8.14974 18.373 8.12109 18.416C7.96354 18.4303 7.8776 18.459 7.86328 18.502C7.73438 18.502 7.6556 18.5378 7.62695 18.6094C7.55534 18.5807 7.50521 18.5807 7.47656 18.6094C7.46224 18.638 7.41927 18.6523 7.34766 18.6523C7.26172 18.681 7.20443 18.7025 7.17578 18.7168C7.14714 18.7311 7.11849 18.7383 7.08984 18.7383C7.04688 18.7669 6.99674 18.7884 6.93945 18.8027C6.88216 18.8171 6.84635 18.8529 6.83203 18.9102C6.66016 18.9102 6.55273 18.9102 6.50977 18.9102C6.4668 18.9102 6.41667 18.903 6.35938 18.8887C6.17318 18.9316 6.03711 18.9746 5.95117 19.0176C5.87956 19.0605 5.80794 19.0892 5.73633 19.1035C5.66471 19.1322 5.5931 19.1393 5.52148 19.125C5.46419 19.1107 5.39974 19.1178 5.32812 19.1465C5.1849 19.1608 5.0918 19.1751 5.04883 19.1895C5.02018 19.2181 4.99154 19.2324 4.96289 19.2324C4.84831 19.2754 4.76953 19.2754 4.72656 19.2324C4.68359 19.2324 4.6263 19.2253 4.55469 19.2109C4.48307 19.2109 4.42578 19.2109 4.38281 19.2109C4.21094 19.2539 4.11784 19.2682 4.10352 19.2539C4.10352 19.2539 4.08919 19.2467 4.06055 19.2324C4.01758 19.2324 3.96029 19.2324 3.88867 19.2324C3.83138 19.2467 3.78125 19.2324 3.73828 19.1895C3.69531 19.2181 3.65951 19.2253 3.63086 19.2109C3.60221 19.2109 3.55924 19.2109 3.50195 19.2109C3.43034 19.2253 3.37305 19.2181 3.33008 19.1895C3.28711 19.1751 3.23698 19.1751 3.17969 19.1895C3.15104 19.1608 3.11523 19.1393 3.07227 19.125C3.04362 19.1107 2.99349 19.1035 2.92188 19.1035C2.72135 19.0605 2.57812 19.0176 2.49219 18.9746C2.40625 18.946 2.32031 18.9173 2.23438 18.8887C2.10547 18.86 2.02669 18.8242 1.99805 18.7812C1.82617 18.7383 1.71875 18.7025 1.67578 18.6738C1.64714 18.6452 1.61133 18.6237 1.56836 18.6094C1.52539 18.6094 1.48958 18.5951 1.46094 18.5664C1.34635 18.5664 1.2819 18.5521 1.26758 18.5234C1.25326 18.5091 1.22461 18.502 1.18164 18.502C1.12435 18.373 1.0599 18.3086 0.988281 18.3086C0.959635 18.237 0.93099 18.1725 0.902344 18.1152C0.873698 18.0723 0.830729 18.0365 0.773438 18.0078C0.759115 17.9076 0.6875 17.8073 0.558594 17.707C0.558594 17.6354 0.544271 17.5853 0.515625 17.5566C0.486979 17.528 0.458333 17.4779 0.429688 17.4062C0.386719 17.2344 0.34375 17.1198 0.300781 17.0625C0.272135 17.0195 0.250651 16.9622 0.236328 16.8906C0.279297 16.7331 0.286458 16.6471 0.257812 16.6328C0.229167 16.6185 0.207682 16.597 0.193359 16.5684C0.179036 16.3822 0.157552 16.2461 0.128906 16.1602C0.114583 16.0742 0.107422 15.9811 0.107422 15.8809C0.107422 15.8379 0.107422 15.7734 0.107422 15.6875C0.107422 15.6159 0.114583 15.5443 0.128906 15.4727C0.171875 15.3151 0.200521 15.222 0.214844 15.1934C0.229167 15.1647 0.229167 15.1361 0.214844 15.1074C0.272135 14.9642 0.307943 14.8783 0.322266 14.8496C0.336589 14.821 0.34375 14.778 0.34375 14.7207C0.429688 14.5345 0.494141 14.4128 0.537109 14.3555C0.580078 14.2982 0.58724 14.248 0.558594 14.2051C0.601562 14.1621 0.63737 14.1191 0.666016 14.0762C0.694661 14.0189 0.716146 13.9473 0.730469 13.8613C0.802083 13.7324 0.859375 13.668 0.902344 13.668C0.93099 13.5964 0.959635 13.5391 0.988281 13.4961C1.01693 13.4388 1.05273 13.3815 1.0957 13.3242C1.13867 13.224 1.16732 13.1667 1.18164 13.1523C1.21029 13.138 1.21745 13.1094 1.20312 13.0664C1.33203 12.9518 1.43229 12.873 1.50391 12.8301C1.58984 12.7871 1.63997 12.7083 1.6543 12.5938C1.82617 12.4935 1.91211 12.4147 1.91211 12.3574C2.04102 12.4147 2.13411 12.3717 2.19141 12.2285C2.23438 12.2142 2.27734 12.1999 2.32031 12.1855C2.3776 12.1712 2.41341 12.1426 2.42773 12.0996C2.59961 12.0137 2.70703 11.9635 2.75 11.9492C2.80729 11.9206 2.85026 11.8776 2.87891 11.8203C2.97917 11.8346 3.05794 11.8203 3.11523 11.7773C3.17253 11.7201 3.2513 11.7057 3.35156 11.7344C3.39453 11.7057 3.44466 11.6842 3.50195 11.6699C3.55924 11.6413 3.60221 11.5983 3.63086 11.541C3.65951 11.5553 3.69531 11.5553 3.73828 11.541C3.78125 11.5267 3.83138 11.5267 3.88867 11.541C4.07487 11.498 4.23958 11.4479 4.38281 11.3906C4.4974 11.362 4.59049 11.3548 4.66211 11.3691C4.74805 11.3691 4.81966 11.3477 4.87695 11.3047C4.94857 11.3047 5.03451 11.3047 5.13477 11.3047C5.23503 11.3047 5.32812 11.3118 5.41406 11.3262C5.5 11.3118 5.55013 11.3118 5.56445 11.3262C5.5931 11.3405 5.62174 11.3477 5.65039 11.3477C5.75065 11.3333 5.80794 11.3333 5.82227 11.3477C5.85091 11.362 5.87956 11.3691 5.9082 11.3691C5.96549 11.3835 6.01562 11.3835 6.05859 11.3691C6.10156 11.3548 6.14453 11.3548 6.1875 11.3691C6.31641 11.3978 6.41667 11.4336 6.48828 11.4766C6.60286 11.4766 6.66732 11.4909 6.68164 11.5195C6.71029 11.5339 6.73893 11.541 6.76758 11.541C6.88216 11.5697 6.95378 11.5983 6.98242 11.627C7.02539 11.6556 7.06836 11.6628 7.11133 11.6484C7.21159 11.7917 7.26888 11.8704 7.2832 11.8848C7.31185 11.8991 7.32617 11.9206 7.32617 11.9492C7.35482 12.0924 7.33333 12.1712 7.26172 12.1855C7.3763 12.2858 7.44792 12.3574 7.47656 12.4004C7.50521 12.429 7.51953 12.4648 7.51953 12.5078C7.53385 12.5794 7.52669 12.651 7.49805 12.7227C7.4694 12.7943 7.4694 12.8587 7.49805 12.916C7.38346 13.1022 7.32617 13.2669 7.32617 13.4102C7.25456 13.5391 7.21159 13.6178 7.19727 13.6465C7.18294 13.6751 7.18294 13.7109 7.19727 13.7539C7.13997 13.7826 7.08268 13.8184 7.02539 13.8613C6.9681 13.89 6.92513 13.9329 6.89648 13.9902C6.7819 13.9902 6.71029 14.0189 6.68164 14.0762C6.65299 14.1335 6.58138 14.1549 6.4668 14.1406C6.29492 14.2409 6.17318 14.291 6.10156 14.291C6.04427 14.2767 5.96549 14.2767 5.86523 14.291C5.79362 14.1335 5.7793 14.0332 5.82227 13.9902C5.87956 13.9473 5.88672 13.89 5.84375 13.8184C5.92969 13.6322 5.97982 13.5176 5.99414 13.4746C6.02279 13.4173 6.05143 13.3672 6.08008 13.3242C6.06576 13.2526 6.05143 13.1882 6.03711 13.1309C6.03711 13.0592 6.05143 12.9876 6.08008 12.916C6.00846 12.7298 5.93685 12.6224 5.86523 12.5938C5.79362 12.5508 5.74349 12.4935 5.71484 12.4219C5.57161 12.3503 5.46419 12.3073 5.39258 12.293C5.33529 12.2786 5.28516 12.2572 5.24219 12.2285C5.11328 12.2572 4.9987 12.2572 4.89844 12.2285C4.8125 12.1855 4.71224 12.1784 4.59766 12.207C4.46875 12.1927 4.36849 12.1855 4.29688 12.1855C4.22526 12.1855 4.13932 12.1999 4.03906 12.2285C3.82422 12.2715 3.67383 12.293 3.58789 12.293C3.51628 12.293 3.48047 12.3503 3.48047 12.4648C3.29427 12.5221 3.19401 12.5723 3.17969 12.6152C3.16536 12.6439 3.12956 12.6582 3.07227 12.6582C3.07227 12.7155 3.05794 12.7585 3.0293 12.7871C3.00065 12.8158 2.97201 12.8444 2.94336 12.873C2.82878 13.0163 2.76432 13.1094 2.75 13.1523C2.73568 13.181 2.69987 13.1953 2.64258 13.1953C2.58529 13.3099 2.54232 13.3887 2.51367 13.4316C2.48503 13.4746 2.44206 13.5104 2.38477 13.5391C2.35612 13.6107 2.32747 13.668 2.29883 13.7109C2.28451 13.7539 2.29167 13.8184 2.32031 13.9043C2.26302 13.9759 2.22005 14.0547 2.19141 14.1406C2.16276 14.2122 2.12695 14.2767 2.08398 14.334C2.04102 14.4772 2.01237 14.599 1.99805 14.6992C1.98372 14.7279 1.96224 14.7708 1.93359 14.8281C1.91927 14.8711 1.91211 14.9141 1.91211 14.957C1.88346 15.0286 1.8763 15.1003 1.89062 15.1719C1.90495 15.2435 1.89779 15.3151 1.86914 15.3867C1.88346 15.5729 1.88346 15.7448 1.86914 15.9023C1.86914 16.0742 1.91211 16.2103 1.99805 16.3105C1.99805 16.4538 2.03385 16.5397 2.10547 16.5684C2.16276 16.7689 2.19141 16.8691 2.19141 16.8691C2.29167 17.0124 2.3418 17.084 2.3418 17.084C2.35612 17.084 2.37044 17.0911 2.38477 17.1055C2.51367 17.2917 2.60677 17.4062 2.66406 17.4492C2.72135 17.5065 2.76432 17.571 2.79297 17.6426C2.89323 17.6712 2.97917 17.6999 3.05078 17.7285C3.13672 17.7715 3.20833 17.8288 3.26562 17.9004C3.32292 17.9147 3.40169 17.9219 3.50195 17.9219L3.80273 18.0508C3.93164 18.0651 4.00326 18.0794 4.01758 18.0938C4.0319 18.1081 4.05339 18.1224 4.08203 18.1367C4.25391 18.1797 4.38281 18.2012 4.46875 18.2012C4.55469 18.2012 4.63346 18.2227 4.70508 18.2656C4.73372 18.194 4.76953 18.1797 4.8125 18.2227C4.85547 18.2656 4.9056 18.2728 4.96289 18.2441C5.0918 18.2298 5.1849 18.237 5.24219 18.2656L5.5 18.2871C5.55729 18.2728 5.60026 18.2728 5.62891 18.2871C5.67188 18.3014 5.70768 18.3086 5.73633 18.3086C5.89388 18.2799 5.97266 18.2656 5.97266 18.2656C5.97266 18.2799 5.97982 18.2871 5.99414 18.2871C6.06576 18.2728 6.13021 18.2656 6.1875 18.2656C6.24479 18.2656 6.30208 18.2585 6.35938 18.2441C6.54557 18.1582 6.69596 18.1152 6.81055 18.1152C6.9681 18.0866 7.08984 18.0508 7.17578 18.0078C7.29036 17.9648 7.3763 17.9147 7.43359 17.8574C7.5625 17.8574 7.64128 17.8431 7.66992 17.8145C7.69857 17.7858 7.72721 17.7572 7.75586 17.7285C7.85612 17.7142 7.94206 17.6927 8.01367 17.6641C8.09961 17.6354 8.17839 17.6068 8.25 17.5781C8.37891 17.5208 8.45052 17.485 8.46484 17.4707C8.49349 17.4564 8.52214 17.4492 8.55078 17.4492C8.70833 17.3776 8.83008 17.306 8.91602 17.2344C9.00195 17.1628 9.09505 17.0983 9.19531 17.041C9.23828 16.9837 9.27409 16.9479 9.30273 16.9336C9.33138 16.9193 9.36003 16.9049 9.38867 16.8906C9.41732 16.862 9.44596 16.8262 9.47461 16.7832C9.50326 16.7402 9.5319 16.7044 9.56055 16.6758C9.67513 16.6185 9.76107 16.5684 9.81836 16.5254C9.87565 16.4824 9.91862 16.4251 9.94727 16.3535C10.0475 16.2676 10.1191 16.2031 10.1621 16.1602C10.2194 16.1315 10.2695 16.0885 10.3125 16.0312C10.3555 15.931 10.4199 15.8594 10.5059 15.8164C10.5775 15.6016 10.6634 15.3939 10.7637 15.1934C10.8639 15.0072 10.8997 14.7852 10.8711 14.5273C10.9284 14.4128 10.9499 14.334 10.9355 14.291C10.9355 14.2337 10.9427 14.1836 10.957 14.1406C10.9857 13.9831 10.9928 13.8828 10.9785 13.8398C10.9785 13.7969 10.9785 13.7396 10.9785 13.668C10.9928 13.5534 10.9928 13.4889 10.9785 13.4746C10.9642 13.4603 10.957 13.446 10.957 13.4316C10.957 13.3171 10.9642 13.224 10.9785 13.1523C10.9928 13.0664 10.9857 12.9733 10.957 12.873C10.9427 12.8444 10.9284 12.8086 10.9141 12.7656C10.8997 12.7227 10.8997 12.6654 10.9141 12.5938C10.8711 12.4648 10.8496 12.4004 10.8496 12.4004C10.8639 12.3861 10.8783 12.3646 10.8926 12.3359C10.8639 12.3073 10.8424 12.2643 10.8281 12.207C10.8281 12.1497 10.8424 12.1068 10.8711 12.0781C10.8281 11.9635 10.7852 11.8561 10.7422 11.7559C10.6992 11.6556 10.6634 11.5482 10.6348 11.4336C10.5918 11.3477 10.556 11.2904 10.5273 11.2617C10.4987 11.2331 10.4772 11.2044 10.4629 11.1758C10.4342 11.0612 10.4128 10.9967 10.3984 10.9824C10.3841 10.9538 10.3626 10.9251 10.334 10.8965C10.248 10.696 10.1693 10.5671 10.0977 10.5098C10.026 10.4382 9.97591 10.3522 9.94727 10.252C9.81836 10.1803 9.74674 10.1374 9.73242 10.123C9.7181 10.1087 9.7181 10.0872 9.73242 10.0586C9.70378 10.0299 9.66797 10.0156 9.625 10.0156C9.58203 10.0013 9.55339 9.96549 9.53906 9.9082C9.45312 9.87956 9.39583 9.85807 9.36719 9.84375C9.35286 9.8151 9.33854 9.78646 9.32422 9.75781C9.23828 9.71484 9.14518 9.67904 9.04492 9.65039C8.95898 9.62174 8.88021 9.57161 8.80859 9.5C8.73698 9.51432 8.67969 9.50716 8.63672 9.47852C8.60807 9.43555 8.55794 9.41406 8.48633 9.41406C8.38607 9.35677 8.29297 9.3138 8.20703 9.28516C8.17839 9.24219 8.12826 9.21354 8.05664 9.19922C7.98503 9.1849 7.92773 9.15625 7.88477 9.11328C7.85612 9.11328 7.81315 9.11328 7.75586 9.11328C7.71289 9.11328 7.67708 9.12044 7.64844 9.13477C7.41927 9.06315 7.26888 8.9987 7.19727 8.94141C7.12565 8.95573 7.02539 8.96289 6.89648 8.96289C6.7819 8.94857 6.68164 8.92708 6.5957 8.89844C6.43815 8.98438 6.33073 9.02734 6.27344 9.02734C6.23047 9.01302 6.19466 9.01302 6.16602 9.02734C6.02279 9.15625 5.93685 9.21354 5.9082 9.19922C5.89388 9.17057 5.8724 9.16341 5.84375 9.17773C5.70052 9.23503 5.5931 9.28516 5.52148 9.32812C5.44987 9.37109 5.37826 9.39974 5.30664 9.41406C5.17773 9.39974 5.0918 9.39974 5.04883 9.41406C5.02018 9.42839 4.9987 9.42839 4.98438 9.41406C4.91276 9.38542 4.86979 9.34961 4.85547 9.30664C4.84115 9.24935 4.80534 9.19922 4.74805 9.15625C4.77669 9.11328 4.78385 9.07747 4.76953 9.04883C4.76953 9.02018 4.77669 8.97721 4.79102 8.91992C4.93424 8.81966 5.01302 8.77669 5.02734 8.79102C5.05599 8.79102 5.08464 8.78385 5.11328 8.76953C5.28516 8.65495 5.42839 8.58333 5.54297 8.55469L5.92969 8.29688C6.04427 8.3112 6.12305 8.3112 6.16602 8.29688C6.20898 8.28255 6.25195 8.26107 6.29492 8.23242C6.5957 8.01758 6.86068 7.86003 7.08984 7.75977C7.16146 7.68815 7.21159 7.64518 7.24023 7.63086C7.26888 7.60221 7.29753 7.56641 7.32617 7.52344C7.4694 7.45182 7.54818 7.40169 7.5625 7.37305C7.57682 7.33008 7.59831 7.29427 7.62695 7.26562C7.72721 7.20833 7.80599 7.15104 7.86328 7.09375C7.92057 7.03646 7.99219 6.98633 8.07812 6.94336C8.13542 6.81445 8.22135 6.70703 8.33594 6.62109C8.33594 6.54948 8.35742 6.49219 8.40039 6.44922C8.44336 6.39193 8.48633 6.33464 8.5293 6.27734C8.55794 6.2487 8.58659 6.20573 8.61523 6.14844C8.64388 6.07682 8.68685 6.02669 8.74414 5.99805C8.74414 5.89779 8.77995 5.81185 8.85156 5.74023C8.89453 5.63997 8.91602 5.57552 8.91602 5.54688C8.93034 5.50391 8.95182 5.4681 8.98047 5.43945C8.98047 5.22461 9.01628 5.08854 9.08789 5.03125C9.11654 4.91667 9.13086 4.80924 9.13086 4.70898C9.13086 4.60872 9.13086 4.49414 9.13086 4.36523C9.14518 4.20768 9.15234 4.12174 9.15234 4.10742C9.13802 3.94987 9.1237 3.84961 9.10938 3.80664C9.09505 3.74935 9.08073 3.69922 9.06641 3.65625C9.06641 3.61328 9.06641 3.57031 9.06641 3.52734C9.08073 3.47005 9.08073 3.42708 9.06641 3.39844C9.05208 3.32682 9.02344 3.24805 8.98047 3.16211C8.9375 3.06185 8.89453 2.97591 8.85156 2.9043C8.82292 2.87565 8.79427 2.84701 8.76562 2.81836C8.7513 2.77539 8.71549 2.74674 8.6582 2.73242C8.67253 2.64648 8.65104 2.59635 8.59375 2.58203C8.55078 2.55339 8.5293 2.50326 8.5293 2.43164C8.40039 2.33138 8.32161 2.27409 8.29297 2.25977C8.27865 2.23112 8.25716 2.20964 8.22852 2.19531C8.1569 2.09505 8.08529 2.0306 8.01367 2.00195C7.94206 1.97331 7.85612 1.9375 7.75586 1.89453C7.71289 1.86589 7.66992 1.83008 7.62695 1.78711C7.58398 1.74414 7.53385 1.70833 7.47656 1.67969C7.40495 1.66536 7.33333 1.6582 7.26172 1.6582C7.1901 1.64388 7.11849 1.62956 7.04688 1.61523C6.97526 1.60091 6.91081 1.58659 6.85352 1.57227C6.81055 1.55794 6.77474 1.54362 6.74609 1.5293C6.70312 1.51497 6.65299 1.51497 6.5957 1.5293C6.55273 1.5293 6.51693 1.51497 6.48828 1.48633C6.44531 1.48633 6.40234 1.49349 6.35938 1.50781C6.31641 1.52214 6.27344 1.5293 6.23047 1.5293C6.02995 1.51497 5.91536 1.50781 5.88672 1.50781C5.8724 1.49349 5.84375 1.49349 5.80078 1.50781C5.67188 1.55078 5.57161 1.57227 5.5 1.57227C5.44271 1.57227 5.37826 1.57943 5.30664 1.59375C5.2207 1.72266 5.16341 1.79427 5.13477 1.80859C5.12044 1.80859 5.09896 1.81576 5.07031 1.83008C5.01302 1.85872 4.97721 1.90169 4.96289 1.95898C4.94857 2.00195 4.9056 2.02344 4.83398 2.02344C4.80534 2.10938 4.76237 2.18099 4.70508 2.23828C4.66211 2.29557 4.6263 2.36719 4.59766 2.45312C4.51172 2.53906 4.46159 2.59635 4.44727 2.625C4.44727 2.65365 4.44727 2.68229 4.44727 2.71094C4.33268 2.83984 4.26823 2.92578 4.25391 2.96875C4.23958 2.9974 4.22526 3.04036 4.21094 3.09766C4.08203 3.21224 4.02474 3.27669 4.03906 3.29102C4.06771 3.30534 4.07487 3.32682 4.06055 3.35547C4.04622 3.41276 4.01758 3.45573 3.97461 3.48438C3.94596 3.51302 3.9388 3.57031 3.95312 3.65625C3.86719 3.77083 3.83138 3.83529 3.8457 3.84961C3.87435 3.84961 3.88151 3.86393 3.86719 3.89258C3.82422 4.03581 3.80273 4.11458 3.80273 4.12891C3.81706 4.12891 3.82422 4.13607 3.82422 4.15039C3.79557 4.25065 3.78841 4.33659 3.80273 4.4082C3.81706 4.46549 3.79557 4.50846 3.73828 4.53711C3.78125 4.5944 3.79557 4.66602 3.78125 4.75195C3.76693 4.82357 3.74544 4.88802 3.7168 4.94531C3.74544 5.01693 3.76693 5.11003 3.78125 5.22461C3.79557 5.33919 3.79557 5.43945 3.78125 5.52539C3.86719 5.72591 3.96029 5.85482 4.06055 5.91211C4.04622 6.01237 4.07487 6.06966 4.14648 6.08398C4.23242 6.09831 4.28255 6.14128 4.29688 6.21289C4.35417 6.21289 4.39714 6.23438 4.42578 6.27734C4.45443 6.30599 4.49023 6.32747 4.5332 6.3418C4.54753 6.49935 4.55469 6.58529 4.55469 6.59961C4.55469 6.61393 4.55469 6.6569 4.55469 6.72852C4.4401 6.82878 4.36849 6.88607 4.33984 6.90039C4.32552 6.90039 4.3112 6.91471 4.29688 6.94336C4.18229 6.97201 4.10352 6.99349 4.06055 7.00781C4.0319 7.02214 4.01042 7.04362 3.99609 7.07227C3.88151 7.11523 3.8099 7.17253 3.78125 7.24414C3.72396 7.25846 3.67383 7.27279 3.63086 7.28711C3.58789 7.30143 3.53776 7.32292 3.48047 7.35156C3.27995 7.26562 3.17253 7.19401 3.1582 7.13672C2.98633 7.03646 2.87174 6.97201 2.81445 6.94336C2.75716 6.91471 2.71419 6.86458 2.68555 6.79297C2.62826 6.77865 2.58529 6.75716 2.55664 6.72852C2.52799 6.68555 2.48503 6.64974 2.42773 6.62109C2.39909 6.53516 2.34896 6.45638 2.27734 6.38477C2.22005 6.29883 2.16276 6.22005 2.10547 6.14844C2.07682 6.11979 2.0625 6.06966 2.0625 5.99805C2.07682 5.91211 2.07682 5.83333 2.0625 5.76172C2.04818 5.60417 2.03385 5.51823 2.01953 5.50391C2.01953 5.48958 2.01953 5.4681 2.01953 5.43945C2.01953 5.2819 2.01237 5.16732 1.99805 5.0957C1.99805 5.02409 2.00521 4.95247 2.01953 4.88086C2.04818 4.76628 2.05534 4.70182 2.04102 4.6875C2.02669 4.67318 2.02669 4.65169 2.04102 4.62305C2.08398 4.4082 2.11263 4.25781 2.12695 4.17188C2.1556 4.08594 2.19857 4.00716 2.25586 3.93555C2.25586 3.82096 2.27018 3.74935 2.29883 3.7207C2.32747 3.69206 2.35612 3.66341 2.38477 3.63477C2.38477 3.50586 2.41341 3.41992 2.4707 3.37695C2.54232 3.31966 2.58529 3.23372 2.59961 3.11914C2.68555 2.97591 2.73568 2.9043 2.75 2.9043C2.77865 2.88997 2.80013 2.86849 2.81445 2.83984C2.90039 2.73958 2.94336 2.66797 2.94336 2.625C2.95768 2.56771 2.97201 2.52474 2.98633 2.49609C3.04362 2.42448 3.08659 2.38151 3.11523 2.36719C3.14388 2.35286 3.16536 2.32422 3.17969 2.28125C3.26562 2.22396 3.3444 2.15951 3.41602 2.08789C3.48763 2.01628 3.56641 1.95182 3.65234 1.89453C3.78125 1.80859 3.86003 1.74414 3.88867 1.70117C3.93164 1.6582 3.96745 1.61523 3.99609 1.57227C4.05339 1.58659 4.10352 1.57943 4.14648 1.55078C4.20378 1.50781 4.24674 1.47201 4.27539 1.44336C4.4043 1.40039 4.46875 1.37174 4.46875 1.35742C4.48307 1.32878 4.50456 1.31445 4.5332 1.31445C4.64779 1.25716 4.7194 1.22852 4.74805 1.22852C4.79102 1.21419 4.81966 1.18555 4.83398 1.14258C4.96289 1.11393 5.03451 1.09245 5.04883 1.07812C5.06315 1.0638 5.07747 1.05664 5.0918 1.05664C5.23503 1.01367 5.30664 0.977865 5.30664 0.949219C5.43555 0.934896 5.5 0.927734 5.5 0.927734C5.5 0.913411 5.51432 0.899089 5.54297 0.884766C5.67188 0.841797 5.79362 0.80599 5.9082 0.777344C6.02279 0.748698 6.13737 0.720052 6.25195 0.691406C6.39518 0.691406 6.48112 0.684245 6.50977 0.669922C6.55273 0.655599 6.58854 0.641276 6.61719 0.626953C6.84635 0.598307 6.99674 0.591146 7.06836 0.605469C7.13997 0.605469 7.21159 0.605469 7.2832 0.605469C7.48372 0.605469 7.62695 0.61263 7.71289 0.626953C7.81315 0.641276 7.91341 0.634115 8.01367 0.605469C8.09961 0.648438 8.17839 0.669922 8.25 0.669922C8.27865 0.727214 8.32161 0.755859 8.37891 0.755859C8.45052 0.741536 8.50065 0.763021 8.5293 0.820312C8.62956 0.791667 8.69401 0.798828 8.72266 0.841797C8.7513 0.884766 8.80143 0.90625 8.87305 0.90625L8.89453 1.05664Z" fill="white"/>
</svg>
