<svg width="" height="" viewBox="0 0 18 22" fill="none" xmlns="http://www.w3.org/2000/svg">
<path d="M10.4219 0.746094C10.4792 0.889323 10.5078 0.989583 10.5078 1.04688C10.5794 1.20443 10.6081 1.36198 10.5938 1.51953C10.5938 1.67708 10.6081 1.85612 10.6367 2.05664C10.5794 2.21419 10.5508 2.32161 10.5508 2.37891C10.5651 2.4362 10.5938 2.47917 10.6367 2.50781C10.5938 2.57943 10.5866 2.6582 10.6152 2.74414C10.5436 2.75846 10.515 2.79427 10.5293 2.85156C10.5579 2.89453 10.5508 2.93034 10.5078 2.95898C10.5221 3.07357 10.5293 3.14518 10.5293 3.17383C10.5293 3.20247 10.515 3.23112 10.4863 3.25977C10.4863 3.33138 10.4863 3.38867 10.4863 3.43164C10.4863 3.47461 10.4792 3.5319 10.4648 3.60352C10.4792 3.73242 10.4792 3.8112 10.4648 3.83984C10.4505 3.86849 10.4362 3.9043 10.4219 3.94727C10.4076 3.99023 10.4004 4.0332 10.4004 4.07617C10.4147 4.11914 10.4076 4.15495 10.3789 4.18359C10.3216 4.35547 10.293 4.49154 10.293 4.5918C10.293 4.67773 10.2715 4.74219 10.2285 4.78516C10.1283 4.98568 10.0781 5.12891 10.0781 5.21484C10.0781 5.30078 10.0423 5.35091 9.9707 5.36523C10.0137 5.49414 10.0065 5.60872 9.94922 5.70898C9.90625 5.80924 9.87044 5.90951 9.8418 6.00977C9.78451 6.12435 9.73438 6.23177 9.69141 6.33203C9.66276 6.43229 9.61979 6.50391 9.5625 6.54688C9.53385 6.67578 9.50521 6.76888 9.47656 6.82617C9.46224 6.86914 9.44792 6.91211 9.43359 6.95508C9.40495 6.99805 9.38346 7.04102 9.36914 7.08398C9.35482 7.12695 9.32617 7.1556 9.2832 7.16992C9.21159 7.3418 9.16862 7.44206 9.1543 7.4707C9.1543 7.49935 9.13997 7.52799 9.11133 7.55664C9.02539 7.67122 8.9681 7.75716 8.93945 7.81445C8.92513 7.87174 8.875 7.90755 8.78906 7.92188C8.77474 7.97917 8.76042 8.0293 8.74609 8.07227C8.73177 8.10091 8.71745 8.15104 8.70312 8.22266C8.64583 8.26562 8.60286 8.33724 8.57422 8.4375C8.47396 8.52344 8.40234 8.65234 8.35938 8.82422C8.31641 8.85286 8.2806 8.88867 8.25195 8.93164C8.22331 8.97461 8.18034 9.00326 8.12305 9.01758C8.02279 9.17513 7.93685 9.28971 7.86523 9.36133C7.75065 9.44727 7.69336 9.50456 7.69336 9.5332C7.70768 9.56185 7.70768 9.57617 7.69336 9.57617C7.62174 9.60482 7.56445 9.65495 7.52148 9.72656C7.49284 9.78385 7.43555 9.81966 7.34961 9.83398C7.26367 9.94857 7.2207 10.0202 7.2207 10.0488C7.2207 10.0632 7.21354 10.0775 7.19922 10.0918C7.07031 10.1777 7.00586 10.2279 7.00586 10.2422C7.02018 10.2422 7.02018 10.2493 7.00586 10.2637C6.87695 10.3496 6.79818 10.4069 6.76953 10.4355C6.74089 10.4642 6.7194 10.5 6.70508 10.543C6.63346 10.5716 6.58333 10.6146 6.55469 10.6719C6.52604 10.7148 6.48307 10.7507 6.42578 10.7793C6.28255 10.8652 6.20378 10.9082 6.18945 10.9082C6.18945 10.9082 6.17513 10.9154 6.14648 10.9297C6.0319 11.0443 5.96745 11.1016 5.95312 11.1016C5.8099 11.2018 5.72396 11.2591 5.69531 11.2734C5.66667 11.2878 5.65951 11.3164 5.67383 11.3594C5.57357 11.4023 5.48763 11.4382 5.41602 11.4668C5.35872 11.4954 5.30859 11.5384 5.26562 11.5957C5.03646 11.6387 4.90755 11.696 4.87891 11.7676C5.03646 11.8535 5.16536 11.9036 5.26562 11.918C5.36589 11.918 5.44466 11.9395 5.50195 11.9824C5.64518 12.0254 5.7526 12.054 5.82422 12.0684C5.98177 12.1113 6.06771 12.1328 6.08203 12.1328C6.28255 12.2044 6.41146 12.2402 6.46875 12.2402C6.52604 12.2402 6.58333 12.2689 6.64062 12.3262C6.69792 12.3262 6.74089 12.3405 6.76953 12.3691C6.8125 12.3978 6.85547 12.4264 6.89844 12.4551C7.01302 12.4694 7.07747 12.4909 7.0918 12.5195C7.10612 12.5339 7.12044 12.5267 7.13477 12.498C7.27799 12.5553 7.37109 12.5911 7.41406 12.6055C7.51432 12.6484 7.57161 12.6699 7.58594 12.6699C7.60026 12.6556 7.62174 12.6556 7.65039 12.6699C7.7793 12.6986 7.85807 12.7201 7.88672 12.7344C7.94401 12.7487 7.99414 12.7702 8.03711 12.7988C8.0944 12.8275 8.15885 12.8346 8.23047 12.8203C8.3737 12.8346 8.4668 12.8633 8.50977 12.9062C8.56706 12.9349 8.61719 12.9349 8.66016 12.9062C8.74609 12.9492 8.79622 12.9635 8.81055 12.9492C8.82487 12.9349 8.85352 12.9349 8.89648 12.9492C8.99674 12.9635 9.05404 12.985 9.06836 13.0137C9.09701 13.028 9.13997 13.028 9.19727 13.0137C9.34049 13.0566 9.43359 13.0853 9.47656 13.0996C9.53385 13.1139 9.59115 13.1068 9.64844 13.0781C9.67708 13.1497 9.74154 13.1855 9.8418 13.1855C9.95638 13.1855 10.0423 13.1999 10.0996 13.2285C10.3431 13.2572 10.5508 13.2715 10.7227 13.2715C10.7943 13.0853 10.8229 12.9134 10.8086 12.7559C10.8086 12.5983 10.8086 12.4408 10.8086 12.2832C10.8372 12.1686 10.8444 12.0827 10.8301 12.0254C10.8158 11.9681 10.8229 11.9036 10.8516 11.832C10.8372 11.7174 10.8301 11.6387 10.8301 11.5957C10.8301 11.5384 10.8372 11.4811 10.8516 11.4238C10.8659 11.2663 10.8659 11.1803 10.8516 11.166C10.8516 11.1517 10.8516 11.1302 10.8516 11.1016C10.8659 11.0156 10.873 10.9368 10.873 10.8652C10.8874 10.7936 10.8802 10.7148 10.8516 10.6289C10.8516 10.4427 10.873 10.3138 10.916 10.2422C10.8874 10.0417 10.873 9.87695 10.873 9.74805C10.8874 9.60482 10.8945 9.47591 10.8945 9.36133C10.8659 9.17513 10.8372 9.06055 10.8086 9.01758C10.7943 8.97461 10.7943 8.92448 10.8086 8.86719C10.7943 8.70964 10.7728 8.58073 10.7441 8.48047C10.7155 8.38021 10.7155 8.27995 10.7441 8.17969L10.6582 7.92188C10.6296 7.85026 10.6009 7.78581 10.5723 7.72852C10.5436 7.6569 10.515 7.59245 10.4863 7.53516C10.5007 7.42057 10.4935 7.36328 10.4648 7.36328C10.4505 7.34896 10.4434 7.32031 10.4434 7.27734C10.4434 7.20573 10.4577 7.1556 10.4863 7.12695C10.5293 7.08398 10.5651 7.03385 10.5938 6.97656C10.6367 6.96224 10.6797 6.94792 10.7227 6.93359C10.7799 6.91927 10.8229 6.89779 10.8516 6.86914C11.0234 6.81185 11.1237 6.79036 11.1523 6.80469C11.181 6.80469 11.2096 6.79753 11.2383 6.7832C11.2956 6.76888 11.3529 6.7474 11.4102 6.71875C11.4818 6.6901 11.5677 6.6901 11.668 6.71875C11.8112 6.6901 11.89 6.69727 11.9043 6.74023C11.9329 6.76888 11.9616 6.79036 11.9902 6.80469C12.0332 6.91927 12.0618 7.01237 12.0762 7.08398C12.1048 7.14128 12.1478 7.19141 12.2051 7.23438C12.1908 7.33464 12.1979 7.42773 12.2266 7.51367C12.2552 7.58529 12.2552 7.6569 12.2266 7.72852C12.2552 7.85742 12.2767 7.95768 12.291 8.0293C12.3197 8.21549 12.334 8.3444 12.334 8.41602C12.3483 8.47331 12.3626 8.5306 12.377 8.58789C12.3913 8.64518 12.3984 8.70964 12.3984 8.78125C12.3984 8.83854 12.377 8.88867 12.334 8.93164C12.3626 9.00326 12.3913 9.08203 12.4199 9.16797C12.4486 9.23958 12.4629 9.32552 12.4629 9.42578C12.4486 9.58333 12.4414 9.66211 12.4414 9.66211C12.4271 9.84831 12.4271 9.97005 12.4414 10.0273C12.4557 10.0703 12.4486 10.1061 12.4199 10.1348C12.4199 10.2637 12.4056 10.3496 12.377 10.3926V10.7148C12.3626 10.7578 12.3483 10.8008 12.334 10.8438C12.3197 10.8867 12.3053 10.9297 12.291 10.9727C12.3483 11.0156 12.3698 11.0658 12.3555 11.123C12.3555 11.166 12.3555 11.2161 12.3555 11.2734C12.3268 11.431 12.3197 11.5098 12.334 11.5098C12.3483 11.5098 12.3555 11.5241 12.3555 11.5527C12.3698 11.7103 12.3626 11.7891 12.334 11.7891C12.3053 11.7747 12.2839 11.7819 12.2695 11.8105C12.3268 12.0254 12.3483 12.1758 12.334 12.2617C12.334 12.3333 12.3268 12.4121 12.3125 12.498C12.2982 12.627 12.2982 12.6986 12.3125 12.7129C12.3268 12.7129 12.334 12.7272 12.334 12.7559L12.3125 13.0137C12.2839 13.1855 12.2767 13.2858 12.291 13.3145C12.3197 13.3431 12.3268 13.3717 12.3125 13.4004C12.4414 13.4147 12.5488 13.4147 12.6348 13.4004C12.735 13.3717 12.8281 13.3431 12.9141 13.3145C13.043 13.3288 13.1074 13.3431 13.1074 13.3574C13.1074 13.3574 13.1217 13.3574 13.1504 13.3574C13.265 13.3288 13.3366 13.3216 13.3652 13.3359C13.3939 13.3359 13.4297 13.3216 13.4727 13.293C13.6445 13.2357 13.7376 13.2142 13.752 13.2285C13.7663 13.2285 13.7878 13.2214 13.8164 13.207C13.9167 13.1784 14.0098 13.1497 14.0957 13.1211C14.1816 13.0781 14.2819 13.0566 14.3965 13.0566C14.4538 13.028 14.5111 12.9993 14.5684 12.9707C14.6257 12.9421 14.6901 12.9206 14.7617 12.9062C14.8477 12.8203 14.9121 12.7559 14.9551 12.7129C15.1413 12.627 15.2559 12.5625 15.2988 12.5195C15.3561 12.4766 15.4134 12.4408 15.4707 12.4121C15.5566 12.3548 15.6283 12.2832 15.6855 12.1973C15.8145 12.1257 15.8789 12.054 15.8789 11.9824C15.8932 11.8965 15.9362 11.8392 16.0078 11.8105C16.0365 11.7389 16.0723 11.6745 16.1152 11.6172C16.1582 11.5456 16.2012 11.474 16.2441 11.4023C16.4017 11.3307 16.4805 11.2878 16.4805 11.2734C16.4948 11.2591 16.5163 11.2448 16.5449 11.2305C16.6165 11.2018 16.6953 11.1875 16.7812 11.1875C16.8815 11.1875 16.9674 11.2161 17.0391 11.2734C17.0391 11.4596 17.0247 11.5671 16.9961 11.5957C16.9531 11.696 16.9245 11.7604 16.9102 11.7891C16.8958 11.8034 16.8887 11.8249 16.8887 11.8535C16.8027 12.0397 16.7168 12.1543 16.6309 12.1973C16.5592 12.2402 16.502 12.3047 16.459 12.3906C16.373 12.4049 16.3014 12.4336 16.2441 12.4766C16.1868 12.5195 16.1367 12.5697 16.0938 12.627C15.9648 12.7415 15.8646 12.8132 15.793 12.8418C15.7214 12.8704 15.6641 12.9206 15.6211 12.9922C15.5495 12.9779 15.4922 12.9993 15.4492 13.0566C15.4206 13.1139 15.3561 13.1283 15.2559 13.0996C15.084 13.1712 14.9909 13.2214 14.9766 13.25C14.9766 13.2643 14.9622 13.2786 14.9336 13.293C14.819 13.3359 14.7331 13.3646 14.6758 13.3789C14.6328 13.3789 14.597 13.3861 14.5684 13.4004C14.4824 13.472 14.4108 13.5078 14.3535 13.5078C14.2962 13.5078 14.2533 13.5078 14.2246 13.5078C14.0814 13.5365 14.0026 13.5651 13.9883 13.5938C13.974 13.6081 13.9525 13.6152 13.9238 13.6152C13.7806 13.6009 13.6947 13.6152 13.666 13.6582C13.6374 13.6868 13.6087 13.7155 13.5801 13.7441C13.4082 13.7728 13.2865 13.7943 13.2148 13.8086C13.1576 13.8086 13.1003 13.8229 13.043 13.8516C12.9141 13.8516 12.8424 13.8444 12.8281 13.8301C12.8281 13.8158 12.8138 13.8158 12.7852 13.8301C12.7279 13.8874 12.6419 13.9447 12.5273 14.002C12.4701 13.9733 12.4199 13.9661 12.377 13.9805C12.334 13.9948 12.291 14.0163 12.248 14.0449C12.2337 14.3027 12.2337 14.4746 12.248 14.5605C12.2767 14.6465 12.2695 14.7324 12.2266 14.8184C12.2552 14.9616 12.248 15.0332 12.2051 15.0332C12.1764 15.0189 12.1621 15.026 12.1621 15.0547C12.1191 15.1549 12.1048 15.2194 12.1191 15.248C12.1478 15.2767 12.1693 15.3197 12.1836 15.377C12.1406 15.5202 12.1191 15.6204 12.1191 15.6777C12.1191 15.735 12.0905 15.7637 12.0332 15.7637C12.0905 15.8496 12.1335 15.9284 12.1621 16C12.2051 16.0573 12.2122 16.1432 12.1836 16.2578C12.1406 16.444 12.1263 16.5586 12.1406 16.6016C12.1549 16.6589 12.1549 16.7233 12.1406 16.7949C12.1263 16.9382 12.1191 17.0312 12.1191 17.0742C12.1335 17.1172 12.1549 17.153 12.1836 17.1816C12.1549 17.2246 12.1263 17.2533 12.0977 17.2676C12.069 17.2962 12.0475 17.3464 12.0332 17.418C12.1048 17.6042 12.1263 17.7259 12.0977 17.7832C12.069 17.8405 12.0547 17.8978 12.0547 17.9551C12.112 18.127 12.1263 18.2129 12.0977 18.2129C12.0833 18.2129 12.0762 18.2272 12.0762 18.2559C12.0762 18.3704 12.069 18.4492 12.0547 18.4922C12.0547 18.5352 12.0404 18.571 12.0117 18.5996C12.0404 18.7715 12.0762 18.8789 12.1191 18.9219C12.1335 19.1224 12.1335 19.2441 12.1191 19.2871C12.1048 19.3301 12.0977 19.3659 12.0977 19.3945C12.112 19.4661 12.1335 19.5306 12.1621 19.5879C12.2051 19.6452 12.2122 19.7096 12.1836 19.7812C12.2122 19.8385 12.2695 19.9245 12.3555 20.0391C12.3841 20.0677 12.4056 20.0964 12.4199 20.125C12.4486 20.168 12.4701 20.2109 12.4844 20.2539C12.4844 20.2969 12.4772 20.3327 12.4629 20.3613C12.4486 20.4043 12.4414 20.4544 12.4414 20.5117C12.3698 20.526 12.3197 20.5475 12.291 20.5762C12.2624 20.6191 12.2337 20.6621 12.2051 20.7051C12.0189 20.6908 11.8757 20.7337 11.7754 20.834C11.6608 20.8197 11.5749 20.8411 11.5176 20.8984C11.4603 20.9701 11.3887 21.0273 11.3027 21.0703L11.002 21.2207C10.9303 21.1921 10.8516 21.1634 10.7656 21.1348C10.651 21.0059 10.5938 20.9199 10.5938 20.877C10.6081 20.8483 10.5938 20.8197 10.5508 20.791C10.6367 20.5905 10.6725 20.4616 10.6582 20.4043C10.6439 20.347 10.6367 20.2897 10.6367 20.2324C10.651 20.0749 10.651 19.9746 10.6367 19.9316C10.6367 19.8887 10.6367 19.8385 10.6367 19.7812C10.6367 19.6953 10.6439 19.6165 10.6582 19.5449C10.6868 19.4733 10.6654 19.4017 10.5938 19.3301C10.6224 19.2012 10.6367 19.1296 10.6367 19.1152C10.651 19.1009 10.6582 19.0794 10.6582 19.0508C10.6296 18.8932 10.6081 18.8073 10.5938 18.793C10.5794 18.7786 10.5723 18.7643 10.5723 18.75C10.5723 18.6927 10.5723 18.6426 10.5723 18.5996C10.5866 18.5566 10.5938 18.5137 10.5938 18.4707C10.6081 18.3991 10.6081 18.3203 10.5938 18.2344C10.5794 18.1484 10.5794 18.0625 10.5938 17.9766C10.6081 17.8333 10.6009 17.7474 10.5723 17.7188C10.5723 17.6615 10.5866 17.5755 10.6152 17.4609C10.6152 17.3034 10.6081 17.2103 10.5938 17.1816C10.5938 17.153 10.5866 17.1172 10.5723 17.0742C10.5579 16.931 10.5579 16.7734 10.5723 16.6016C10.6009 16.444 10.6081 16.2936 10.5938 16.1504C10.5794 16.1074 10.5723 16.0645 10.5723 16.0215C10.5866 15.9785 10.5938 15.9355 10.5938 15.8926C10.6081 15.7637 10.6081 15.6992 10.5938 15.6992C10.5938 15.6849 10.5938 15.6634 10.5938 15.6348C10.6081 15.4629 10.6152 15.3555 10.6152 15.3125C10.6296 15.2552 10.6224 15.2051 10.5938 15.1621C10.6224 15.0905 10.6296 15.0046 10.6152 14.9043C10.6296 14.7611 10.6367 14.6895 10.6367 14.6895C10.651 14.6751 10.6582 14.6608 10.6582 14.6465C10.6582 14.5605 10.6654 14.4961 10.6797 14.4531C10.694 14.3958 10.6868 14.3457 10.6582 14.3027C10.6296 14.2311 10.5866 14.2025 10.5293 14.2168C10.472 14.2311 10.4147 14.2096 10.3574 14.1523C10.3288 14.1667 10.2786 14.181 10.207 14.1953C10.1497 14.2096 10.1068 14.2025 10.0781 14.1738C9.86328 14.1595 9.66276 14.1667 9.47656 14.1953C9.30469 14.2096 9.17578 14.181 9.08984 14.1094C9.03255 14.138 8.98242 14.138 8.93945 14.1094C8.89648 14.0807 8.83919 14.0664 8.76758 14.0664C8.63867 14.0807 8.53125 14.0807 8.44531 14.0664C8.3737 14.0521 8.30208 14.0378 8.23047 14.0234C8.08724 14.0234 8.01562 14.0163 8.01562 14.002C8.01562 13.9876 8.0013 13.9805 7.97266 13.9805C7.8151 13.9805 7.6862 13.9661 7.58594 13.9375C7.5 13.8945 7.41406 13.8802 7.32812 13.8945C7.17057 13.8229 7.06315 13.7871 7.00586 13.7871C6.96289 13.7871 6.93424 13.7728 6.91992 13.7441C6.83398 13.7585 6.76237 13.7441 6.70508 13.7012C6.66211 13.6582 6.59766 13.651 6.51172 13.6797C6.26823 13.6224 6.10352 13.5723 6.01758 13.5293C5.93164 13.472 5.83138 13.4434 5.7168 13.4434C5.5306 13.3574 5.42318 13.3073 5.39453 13.293C5.23698 13.207 5.14388 13.1712 5.11523 13.1855C5.08659 13.1855 5.05078 13.1784 5.00781 13.1641C4.83594 13.1068 4.72852 13.0853 4.68555 13.0996C4.6569 13.0137 4.57812 12.9779 4.44922 12.9922C4.32031 12.9922 4.23438 12.9564 4.19141 12.8848C4.11979 12.8991 4.0625 12.9062 4.01953 12.9062C3.99089 12.8919 3.94076 12.8919 3.86914 12.9062C3.75456 12.849 3.68294 12.806 3.6543 12.7773C3.63997 12.7487 3.60417 12.7415 3.54688 12.7559C3.33203 12.7129 3.16732 12.6771 3.05273 12.6484C2.95247 12.6198 2.84505 12.6055 2.73047 12.6055C2.60156 12.5911 2.51562 12.584 2.47266 12.584C2.27214 12.5983 2.12891 12.5983 2.04297 12.584C1.95703 12.5553 1.87826 12.5697 1.80664 12.627C1.7207 12.5697 1.5918 12.5482 1.41992 12.5625C1.29102 12.6198 1.19792 12.6484 1.14062 12.6484C1.02604 12.5625 0.96875 12.5052 0.96875 12.4766C0.954427 12.4336 0.932943 12.4121 0.904297 12.4121C0.932943 12.3405 0.947266 12.276 0.947266 12.2188C0.947266 12.1615 0.96875 12.097 1.01172 12.0254C1.16927 11.9681 1.25521 11.9395 1.26953 11.9395C1.28385 11.9251 1.33398 11.918 1.41992 11.918C1.52018 11.8464 1.59896 11.8034 1.65625 11.7891C1.69922 11.7604 1.74935 11.7318 1.80664 11.7031C1.96419 11.6315 2.07161 11.5957 2.12891 11.5957C2.20052 11.5957 2.25781 11.5957 2.30078 11.5957C2.41536 11.6243 2.47982 11.6387 2.49414 11.6387C2.50846 11.6243 2.52279 11.6172 2.53711 11.6172C2.70898 11.6029 2.81641 11.6029 2.85938 11.6172C2.91667 11.6172 2.9668 11.6029 3.00977 11.5742C3.05273 11.6315 3.11003 11.653 3.18164 11.6387C3.26758 11.6243 3.35352 11.6172 3.43945 11.6172C3.51107 11.6172 3.5612 11.6243 3.58984 11.6387C3.63281 11.653 3.6901 11.653 3.76172 11.6387C3.83333 11.6243 3.88346 11.6172 3.91211 11.6172C3.94076 11.6029 3.97656 11.5814 4.01953 11.5527C4.11979 11.4668 4.19857 11.4238 4.25586 11.4238C4.31315 11.4095 4.35612 11.3952 4.38477 11.3809C4.44206 11.3522 4.49219 11.3236 4.53516 11.2949C4.57812 11.2663 4.62109 11.2376 4.66406 11.209C4.72135 11.1803 4.77148 11.1517 4.81445 11.123C4.87174 11.0944 4.91471 11.0658 4.94336 11.0371C5.12956 10.9225 5.24414 10.8438 5.28711 10.8008C5.3444 10.7435 5.40169 10.6934 5.45898 10.6504C5.50195 10.6217 5.54492 10.5931 5.58789 10.5645C5.63086 10.5358 5.67383 10.5 5.7168 10.457L5.88867 10.2637C6.00326 10.1634 6.07487 10.1061 6.10352 10.0918C6.13216 10.0632 6.15365 10.0273 6.16797 9.98438C6.26823 9.88411 6.34701 9.8125 6.4043 9.76953C6.46159 9.72656 6.50456 9.66211 6.5332 9.57617C6.63346 9.44727 6.69076 9.38281 6.70508 9.38281C6.73372 9.36849 6.74089 9.34701 6.72656 9.31836C6.78385 9.27539 6.83398 9.23242 6.87695 9.18945C6.93424 9.14648 6.97005 9.07487 6.98438 8.97461C7.07031 8.93164 7.1276 8.87435 7.15625 8.80273C7.1849 8.7168 7.23503 8.64518 7.30664 8.58789C7.39258 8.41602 7.44987 8.31576 7.47852 8.28711C7.52148 8.24414 7.55729 8.19401 7.58594 8.13672C7.64323 8.02214 7.67904 7.95768 7.69336 7.94336C7.72201 7.92904 7.72917 7.90755 7.71484 7.87891C7.78646 7.75 7.85091 7.67122 7.9082 7.64258C7.97982 7.61393 8.0013 7.57096 7.97266 7.51367C8.02995 7.4707 8.07292 7.42057 8.10156 7.36328C8.14453 7.30599 8.16602 7.22005 8.16602 7.10547C8.26628 6.97656 8.31641 6.89779 8.31641 6.86914C8.31641 6.84049 8.33073 6.83333 8.35938 6.84766C8.3737 6.70443 8.40951 6.60417 8.4668 6.54688C8.45247 6.47526 8.45247 6.42513 8.4668 6.39648C8.49544 6.35352 8.52409 6.31771 8.55273 6.28906C8.56706 6.16016 8.57422 6.08854 8.57422 6.07422C8.58854 6.0599 8.60286 6.03841 8.61719 6.00977C8.64583 5.85221 8.66732 5.77344 8.68164 5.77344C8.71029 5.75911 8.72461 5.74479 8.72461 5.73047C8.75326 5.60156 8.77474 5.52279 8.78906 5.49414C8.81771 5.45117 8.83203 5.37956 8.83203 5.2793C8.875 5.10742 8.91797 4.97852 8.96094 4.89258C9.01823 4.80664 9.0612 4.7207 9.08984 4.63477C9.10417 4.56315 9.11133 4.50586 9.11133 4.46289C9.11133 4.4056 9.12565 4.35547 9.1543 4.3125C9.12565 4.16927 9.12565 4.0332 9.1543 3.9043C9.19727 3.76107 9.19727 3.61784 9.1543 3.47461C9.21159 3.36003 9.24023 3.2168 9.24023 3.04492C9.25456 2.95898 9.25456 2.87305 9.24023 2.78711C9.24023 2.70117 9.22591 2.62956 9.19727 2.57227C9.25456 2.32878 9.24023 2.14974 9.1543 2.03516C9.18294 1.9349 9.1901 1.8776 9.17578 1.86328C9.16146 1.83464 9.1543 1.80599 9.1543 1.77734C9.16862 1.66276 9.16862 1.59115 9.1543 1.5625C9.13997 1.53385 9.13997 1.50521 9.1543 1.47656C9.13997 1.33333 9.13997 1.26172 9.1543 1.26172C9.16862 1.2474 9.1901 1.22591 9.21875 1.19727C9.27604 1.08268 9.31901 1.02539 9.34766 1.02539C9.39062 1.01107 9.39779 0.982422 9.36914 0.939453C9.58398 0.92513 9.7487 0.903646 9.86328 0.875C9.99219 0.832031 10.0996 0.77474 10.1855 0.703125C10.2285 0.717448 10.2715 0.724609 10.3145 0.724609C10.3574 0.724609 10.3932 0.731771 10.4219 0.746094Z" fill="white"/>
</svg>
