<svg width="21" height="21" viewBox="0 0 21 21" fill="none" xmlns="http://www.w3.org/2000/svg">
<g filter="url(#filter0_d_2512_2033)">
<circle cx="10.5" cy="10.5" r="8.5" fill="black"/>
</g>
<path d="M10.7043 10.9996L12.8522 8.85634C12.9463 8.76227 12.9991 8.63467 12.9991 8.50163C12.9991 8.36859 12.9463 8.241 12.8522 8.14692C12.7582 8.05285 12.6306 8 12.4976 8C12.3646 8 12.237 8.05285 12.1429 8.14692L10 10.2952L7.85707 8.14692C7.76301 8.05285 7.63544 8 7.50241 8C7.36939 8 7.24182 8.05285 7.14776 8.14692C7.0537 8.241 7.00085 8.36859 7.00085 8.50163C7.00085 8.63467 7.0537 8.76227 7.14776 8.85634L9.29568 10.9996L7.14776 13.1428C7.10094 13.1893 7.06378 13.2445 7.03842 13.3054C7.01306 13.3663 7 13.4316 7 13.4975C7 13.5635 7.01306 13.6288 7.03842 13.6896C7.06378 13.7505 7.10094 13.8058 7.14776 13.8522C7.19419 13.899 7.24944 13.9362 7.31031 13.9616C7.37118 13.9869 7.43647 14 7.50241 14C7.56836 14 7.63365 13.9869 7.69452 13.9616C7.75539 13.9362 7.81063 13.899 7.85707 13.8522L10 11.704L12.1429 13.8522C12.1894 13.899 12.2446 13.9362 12.3055 13.9616C12.3664 13.9869 12.4316 14 12.4976 14C12.5635 14 12.6288 13.9869 12.6897 13.9616C12.7506 13.9362 12.8058 13.899 12.8522 13.8522C12.8991 13.8058 12.9362 13.7505 12.9616 13.6896C12.9869 13.6288 13 13.5635 13 13.4975C13 13.4316 12.9869 13.3663 12.9616 13.3054C12.9362 13.2445 12.8991 13.1893 12.8522 13.1428L10.7043 10.9996Z" fill="white"/>
<defs>
<filter id="filter0_d_2512_2033" x="0" y="0" width="21" height="21" filterUnits="userSpaceOnUse" color-interpolation-filters="sRGB">
<feFlood flood-opacity="0" result="BackgroundImageFix"/>
<feColorMatrix in="SourceAlpha" type="matrix" values="0 0 0 0 0 0 0 0 0 0 0 0 0 0 0 0 0 0 127 0" result="hardAlpha"/>
<feOffset/>
<feGaussianBlur stdDeviation="1"/>
<feComposite in2="hardAlpha" operator="out"/>
<feColorMatrix type="matrix" values="0 0 0 0 0 0 0 0 0 0 0 0 0 0 0 0 0 0 0.15 0"/>
<feBlend mode="normal" in2="BackgroundImageFix" result="effect1_dropShadow_2512_2033"/>
<feBlend mode="normal" in="SourceGraphic" in2="effect1_dropShadow_2512_2033" result="shape"/>
</filter>
</defs>
</svg>
