<svg width="" height="" viewBox="0 0 30 31" fill="none" xmlns="http://www.w3.org/2000/svg">
<circle cx="15" cy="15.7422" r="15" fill="white"/>
<mask id="path-2-inside-1_2482_4989" fill="white">
<path d="M14.9742 15.6907C17.5373 15.6907 19.5929 13.6286 19.5929 11.1138C19.5929 8.599 17.5373 6.51172 14.9742 6.51172C12.411 6.51172 10.3554 8.57385 10.3554 11.0886C10.3554 13.6034 12.411 15.6907 14.9742 15.6907ZM14.9742 7.71882C16.8521 7.71882 18.3748 9.22769 18.3748 11.0886C18.3748 12.9496 16.8521 14.4585 14.9742 14.4585C13.0962 14.4585 11.5735 12.9747 11.5735 11.1138C11.5735 9.25284 13.0962 7.71882 14.9742 7.71882ZM6.95477 22.8579H23.0443C23.3742 22.8579 23.6534 22.5812 23.6534 22.2543C23.6534 19.0857 21.0395 16.4954 17.8419 16.4954H12.1572C8.95962 16.4954 6.3457 19.0857 6.3457 22.2543C6.3457 22.5812 6.62486 22.8579 6.95477 22.8579ZM12.1572 17.7025H17.8419C20.1766 17.7025 22.08 19.4126 22.3845 21.6508H7.6146C7.91913 19.4126 9.82247 17.7025 12.1572 17.7025Z"/>
</mask>
<path d="M14.9742 15.6907C17.5373 15.6907 19.5929 13.6286 19.5929 11.1138C19.5929 8.599 17.5373 6.51172 14.9742 6.51172C12.411 6.51172 10.3554 8.57385 10.3554 11.0886C10.3554 13.6034 12.411 15.6907 14.9742 15.6907ZM14.9742 7.71882C16.8521 7.71882 18.3748 9.22769 18.3748 11.0886C18.3748 12.9496 16.8521 14.4585 14.9742 14.4585C13.0962 14.4585 11.5735 12.9747 11.5735 11.1138C11.5735 9.25284 13.0962 7.71882 14.9742 7.71882ZM6.95477 22.8579H23.0443C23.3742 22.8579 23.6534 22.5812 23.6534 22.2543C23.6534 19.0857 21.0395 16.4954 17.8419 16.4954H12.1572C8.95962 16.4954 6.3457 19.0857 6.3457 22.2543C6.3457 22.5812 6.62486 22.8579 6.95477 22.8579ZM12.1572 17.7025H17.8419C20.1766 17.7025 22.08 19.4126 22.3845 21.6508H7.6146C7.91913 19.4126 9.82247 17.7025 12.1572 17.7025Z" fill="black"/>
<path d="M22.3845 21.6508V24.6508H25.8203L25.3571 21.2463L22.3845 21.6508ZM7.6146 21.6508L4.64199 21.2463L4.17876 24.6508H7.6146V21.6508ZM14.9742 18.6907C19.1792 18.6907 22.5929 15.3004 22.5929 11.1138H16.5929C16.5929 11.9567 15.8955 12.6907 14.9742 12.6907V18.6907ZM22.5929 11.1138C22.5929 6.94848 19.2005 3.51172 14.9742 3.51172V9.51172C15.8741 9.51172 16.5929 10.2495 16.5929 11.1138H22.5929ZM14.9742 3.51172C10.7692 3.51172 7.3554 6.90201 7.3554 11.0886H13.3554C13.3554 10.2457 14.0528 9.51172 14.9742 9.51172V3.51172ZM7.3554 11.0886C7.3554 15.2539 10.7478 18.6907 14.9742 18.6907V12.6907C14.0742 12.6907 13.3554 11.9529 13.3554 11.0886H7.3554ZM14.9742 10.7188C15.2211 10.7188 15.3748 10.9102 15.3748 11.0886H21.3748C21.3748 7.54516 18.4832 4.71882 14.9742 4.71882V10.7188ZM15.3748 11.0886C15.3748 11.267 15.2211 11.4585 14.9742 11.4585V17.4585C18.4832 17.4585 21.3748 14.6321 21.3748 11.0886H15.3748ZM14.9742 11.4585C14.6977 11.4585 14.5735 11.2631 14.5735 11.1138H8.57354C8.57354 14.6864 11.4947 17.4585 14.9742 17.4585V11.4585ZM14.5735 11.1138C14.5735 10.9064 14.7563 10.7188 14.9742 10.7188V4.71882C11.4361 4.71882 8.57354 7.59926 8.57354 11.1138H14.5735ZM6.95477 25.8579H23.0443V19.8579H6.95477V25.8579ZM23.0443 25.8579C25.0053 25.8579 26.6534 24.2638 26.6534 22.2543H20.6534C20.6534 20.8987 21.7432 19.8579 23.0443 19.8579V25.8579ZM26.6534 22.2543C26.6534 17.4031 22.6705 13.4954 17.8419 13.4954V19.4954C19.4084 19.4954 20.6534 20.7682 20.6534 22.2543H26.6534ZM17.8419 13.4954H12.1572V19.4954H17.8419V13.4954ZM12.1572 13.4954C7.32857 13.4954 3.3457 17.4031 3.3457 22.2543H9.3457C9.3457 20.7682 10.5907 19.4954 12.1572 19.4954V13.4954ZM3.3457 22.2543C3.3457 24.2638 4.9938 25.8579 6.95477 25.8579V19.8579C8.25592 19.8579 9.3457 20.8987 9.3457 22.2543H3.3457ZM12.1572 20.7025H17.8419V14.7025H12.1572V20.7025ZM17.8419 20.7025C18.6621 20.7025 19.3078 21.29 19.4119 22.0552L25.3571 21.2463C24.8522 17.5352 21.6911 14.7025 17.8419 14.7025V20.7025ZM22.3845 18.6508H7.6146V24.6508H22.3845V18.6508ZM10.5872 22.0552C10.6913 21.29 11.337 20.7025 12.1572 20.7025V14.7025C8.30796 14.7025 5.14694 17.5352 4.64199 21.2463L10.5872 22.0552Z" fill="black" mask="url(#path-2-inside-1_2482_4989)"/>
</svg>
