<svg width="" height="" viewBox="0 0 38 38" fill="none" xmlns="http://www.w3.org/2000/svg">
<g filter="url(#filter0_d_2482_4063)">
<circle cx="19" cy="19" r="15" fill="white"/>
</g>
<path fill-rule="evenodd" clip-rule="evenodd" d="M15.3332 25.7806C15.7014 26.0731 16.2968 26.0731 16.6641 25.7806L24.4485 19.5829C24.6227 19.4463 24.7615 19.2819 24.8563 19.0997C24.9511 18.9174 25 18.7212 25 18.5229C25 18.3246 24.9511 18.1283 24.8563 17.9461C24.7615 17.7638 24.6227 17.5994 24.4485 17.4628L16.6077 11.2194C16.4298 11.0798 16.1941 11.0014 15.9486 11C15.7031 10.9986 15.4662 11.0744 15.2859 11.2119C15.1966 11.2798 15.1252 11.3621 15.076 11.4537C15.0268 11.5453 15.001 11.6442 15 11.7444C14.9991 11.8446 15.0231 11.9439 15.0705 12.0361C15.118 12.1283 15.1879 12.2115 15.2759 12.2806L22.4522 17.993C22.5394 18.0613 22.6088 18.1436 22.6562 18.2347C22.7037 18.3259 22.7282 18.424 22.7282 18.5233C22.7282 18.6225 22.7037 18.7206 22.6562 18.8118C22.6088 18.9029 22.5394 18.9852 22.4522 19.0535L15.3332 24.7209C15.246 24.7892 15.1766 24.8714 15.1292 24.9624C15.0817 25.0535 15.0573 25.1516 15.0573 25.2508C15.0573 25.3499 15.0817 25.448 15.1292 25.5391C15.1766 25.6302 15.246 25.7124 15.3332 25.7806Z" fill="black"/>
<defs>
<filter id="filter0_d_2482_4063" x="0" y="0" width="38" height="38" filterUnits="userSpaceOnUse" color-interpolation-filters="sRGB">
<feFlood flood-opacity="0" result="BackgroundImageFix"/>
<feColorMatrix in="SourceAlpha" type="matrix" values="0 0 0 0 0 0 0 0 0 0 0 0 0 0 0 0 0 0 127 0" result="hardAlpha"/>
<feOffset/>
<feGaussianBlur stdDeviation="2"/>
<feComposite in2="hardAlpha" operator="out"/>
<feColorMatrix type="matrix" values="0 0 0 0 0 0 0 0 0 0 0 0 0 0 0 0 0 0 0.5 0"/>
<feBlend mode="normal" in2="BackgroundImageFix" result="effect1_dropShadow_2482_4063"/>
<feBlend mode="normal" in="SourceGraphic" in2="effect1_dropShadow_2482_4063" result="shape"/>
</filter>
</defs>
</svg>
